<svg width="18" height="11" viewBox="0 0 18 11" fill="none" xmlns="http://www.w3.org/2000/svg">
<path d="M6.78991 10.2857L5.18431 9.84799L5.83869 7.36444C4.85918 6.9973 3.94882 6.46226 3.14717 5.78255L1.35698 7.60274L0.180432 6.40702L1.97145 4.58767C0.960429 3.3571 0.281115 1.88084 0 0.303366L1.63636 0C2.26746 3.55082 5.324 6.24478 9 6.24478C12.6752 6.24478 15.7325 3.55082 16.3636 0L18 0.302521C17.7193 1.88021 17.0402 3.35677 16.0294 4.58767L17.8196 6.40702L16.643 7.60274L14.8528 5.78255C14.0512 6.46226 13.1408 6.9973 12.1613 7.36444L12.8157 9.84883L11.2101 10.2857L10.5549 7.80132C9.52579 7.98054 8.47421 7.98054 7.44512 7.80132L6.78991 10.2857Z" fill="black"/>
</svg>
