<svg width="18" height="18" viewBox="0 0 18 18" fill="none" xmlns="http://www.w3.org/2000/svg">
<path d="M0.00100626 9.99852H2.02828C2.27205 11.6633 3.11071 13.1852 4.39082 14.2858C5.67094 15.3864 7.30693 15.9921 8.9995 15.9921C10.6921 15.9921 12.3281 15.3864 13.6082 14.2858C14.8883 13.1852 15.7269 11.6633 15.9707 9.99852H17.999C17.7509 12.1984 16.696 14.2302 15.0358 15.7058C13.3756 17.1813 11.2266 17.997 8.9995 17.997C6.77238 17.997 4.62336 17.1813 2.96317 15.7058C1.30297 14.2302 0.248045 12.1984 0 9.99852H0.00100626ZM0.00100626 7.99852C0.249051 5.79866 1.30398 3.76679 2.96417 2.29125C4.62437 0.815719 6.77339 0 9.0005 0C11.2276 0 13.3766 0.815719 15.0368 2.29125C16.697 3.76679 17.752 5.79866 18 7.99852H15.9727C15.729 6.33373 14.8903 4.81184 13.6102 3.71125C12.3301 2.61066 10.6941 2.00496 9.00151 2.00496C7.30894 2.00496 5.67295 2.61066 4.39283 3.71125C3.11272 4.81184 2.27406 6.33373 2.03029 7.99852H0.00100626Z" fill="black"/>
</svg>
