<svg width="169" height="163" viewBox="0 0 169 163" fill="none" xmlns="http://www.w3.org/2000/svg">
<path d="M55.114 56.0069C55.3562 55.8643 55.6684 55.9446 55.8114 56.1869L56.3873 57.1588C58.6758 60.998 59.591 62.2445 60.5637 62.8079C61.363 63.2711 62.1895 63.1274 63.703 62.24L63.9048 62.1189C64.8566 61.5255 69.2115 58.5341 70.8951 57.4598C71.1321 57.3088 71.4471 57.3784 71.5981 57.6154C71.7495 57.8524 71.6799 58.167 71.4429 58.3184L71.1836 58.485C69.3072 59.7013 65.0922 62.596 64.3461 63.0421C62.5142 64.1376 61.3265 64.3837 60.1363 63.7357L60.0532 63.689C58.7746 62.9482 57.7797 61.5266 54.9344 56.704C54.7918 56.4621 54.8721 56.15 55.114 56.0069Z" fill="white"/>
<path d="M63.3581 61.8905C63.6369 61.8532 63.893 62.0488 63.9303 62.3276C64.1036 63.6221 64.5187 64.9205 65.1782 66.2241C65.3049 66.4747 65.2046 66.7809 64.9537 66.9079C64.7028 67.035 64.3966 66.9344 64.2696 66.6835C63.5603 65.281 63.11 63.8734 62.9214 62.4626C62.8838 62.1838 63.0797 61.9277 63.3581 61.8905Z" fill="white"/>
<path fill-rule="evenodd" clip-rule="evenodd" d="M122.659 92.9805C122.576 93.1882 122.397 93.476 122.187 93.7481L122.368 93.935L122.576 94.1574L122.623 94.2019C122.643 94.22 122.659 94.2308 122.67 94.2339C122.738 94.2437 122.785 94.306 122.776 94.3738C122.766 94.4403 122.704 94.4883 122.637 94.4786C122.576 94.4772 122.353 94.3905 122.089 94.1755C122.041 94.1365 121.993 94.0916 121.944 94.0422C121.792 94.2127 121.638 94.3592 121.504 94.4501C121.308 94.5854 121.138 94.5962 121.057 94.5412C120.977 94.488 120.901 94.3088 121.031 93.9465C121.051 93.8807 121.121 93.8463 121.185 93.8668C121.25 93.8873 121.286 93.9562 121.266 94.0217C121.246 94.0888 121.243 94.1504 121.243 94.1995L121.318 94.1483C121.345 94.1292 121.372 94.1076 121.397 94.0826C121.488 93.9931 121.589 93.8842 121.691 93.7666C121.53 93.5787 121.365 93.3584 121.232 93.104C121.167 92.9798 121.115 92.8482 121.066 92.7097C121.032 92.6325 121.067 92.5416 121.145 92.5072C121.222 92.4731 121.313 92.5086 121.347 92.5858C121.496 92.8966 121.685 93.1642 121.872 93.3935L121.934 93.4684C122.105 93.2456 122.251 93.0201 122.318 92.8482C122.354 92.7546 122.461 92.708 122.554 92.7438C122.649 92.7811 122.695 92.8868 122.659 92.9805Z" fill="white"/>
<path fill-rule="evenodd" clip-rule="evenodd" d="M46.919 28.7651L46.6089 28.709C44.8762 28.3868 43.5479 27.9915 41.0663 27.1309C40.7817 27.0324 40.631 26.7216 40.7298 26.437C40.8283 26.1526 41.139 26.0019 41.4237 26.1004L42.0421 26.3134C44.2188 27.056 45.4403 27.3967 47.1083 27.6908C52.7215 28.6805 56.9243 25.7991 57.2681 20.3031C57.2869 20.0024 57.5458 19.7738 57.8465 19.7926C58.1468 19.8114 58.3755 20.0703 58.3567 20.371C57.9701 26.5521 53.1423 29.8623 46.919 28.7651Z" fill="#00160A"/>
<path fill-rule="evenodd" clip-rule="evenodd" d="M60.9451 34.6508L61.2579 35.3468L61.972 35.5518C62.0107 35.5629 62.0329 35.6033 62.0218 35.6415C62.0183 35.6537 62.012 35.6645 62.0033 35.6732L61.4608 36.2133L61.4911 36.9904C61.4928 37.0304 61.4615 37.0642 61.4215 37.0659C61.4079 37.0663 61.3943 37.0631 61.3825 37.0562L60.7686 36.7064C60.7492 36.6956 60.7262 36.6939 60.7057 36.7023L60.049 36.9629C60.0117 36.9779 59.9693 36.9598 59.9543 36.9222C59.9494 36.9097 59.9481 36.8957 59.9505 36.8825L60.0887 36.1173L59.6269 35.5069C59.6025 35.4749 59.6088 35.4293 59.6408 35.4053C59.6509 35.3976 59.6624 35.3927 59.6745 35.391L60.4102 35.2876L60.817 34.6421C60.8386 34.608 60.8835 34.5979 60.9172 34.6191C60.9294 34.6268 60.9392 34.6379 60.9451 34.6508Z" fill="#00160A"/>
<path d="M132.685 17.1586C132.966 17.1384 133.209 17.3496 133.229 17.6301C133.249 17.9106 133.038 18.1538 132.758 18.174C130.749 18.3174 129.171 19.0955 128.471 21.021C128.429 21.1369 128.394 21.249 128.365 21.3551L128.346 21.4282L128.377 21.3641C129.259 19.5625 130.961 18.3108 132.933 17.9931L133.062 17.9736C133.341 17.9346 133.598 18.1288 133.637 18.4072C133.676 18.6856 133.481 18.9431 133.203 18.9817C131.371 19.2375 129.804 20.4552 129.12 22.2014L129.076 22.3187C128.751 23.2113 127.971 23.6394 127.469 22.8755C127.163 22.4095 127.183 21.582 127.514 20.673C128.353 18.3668 130.28 17.3301 132.685 17.1586Z" fill="white"/>
<path d="M130.367 13.3664C130.647 13.3463 130.891 13.5575 130.911 13.838C130.931 14.1185 130.719 14.3617 130.439 14.3819C127.244 14.6098 124.442 16.685 123.328 19.7477C122.997 20.6557 122.935 21.4317 123.054 21.8249L123.068 21.8688L123.091 21.8364C123.148 21.7501 123.212 21.6262 123.274 21.4658L123.301 21.3948C124.479 18.1595 127.334 15.894 130.682 15.4266C130.961 15.3876 131.218 15.5818 131.257 15.8602C131.296 16.1386 131.102 16.3958 130.823 16.4348C127.894 16.8437 125.39 18.7987 124.311 21.5998L124.258 21.7428C123.821 22.9427 122.877 23.4609 122.273 22.5422C121.86 21.9126 121.889 20.7246 122.371 19.3994C123.624 15.9559 126.775 13.6226 130.367 13.3664Z" fill="white"/>
<path d="M127.242 8.31001C127.522 8.29017 127.766 8.50106 127.786 8.78155C127.806 9.06203 127.595 9.30564 127.315 9.32547C122.757 9.6505 118.761 12.6102 117.171 16.9787C116.63 18.4653 116.585 19.7255 116.88 20.2492L116.908 20.2937C116.951 20.3602 116.936 20.3623 116.948 20.3529L116.955 20.3484C117.104 20.2662 117.302 19.9865 117.482 19.5219L117.518 19.4265C119.142 14.9648 123.08 11.8401 127.698 11.1956C127.976 11.1567 128.234 11.3508 128.273 11.6292C128.311 11.9076 128.117 12.1648 127.839 12.2038C123.645 12.7891 120.063 15.5961 118.534 19.6155L118.475 19.7749C117.91 21.327 116.777 21.9488 116.057 20.8526C115.519 20.0352 115.559 18.4326 116.215 16.6307C117.943 11.8812 122.288 8.66358 127.242 8.31001Z" fill="white"/>
<path d="M121.663 3.55833C121.939 3.50439 122.206 3.68397 122.26 3.95993C122.315 4.23589 122.135 4.50316 121.859 4.55744C117.733 5.36515 114.415 8.5163 113.453 12.6843C113.127 14.0951 113.226 15.2421 113.546 15.6795L113.588 15.7345L113.591 15.7422L113.597 15.7373C113.712 15.6343 113.846 15.3705 113.949 14.9613L113.971 14.8715C114.961 10.5848 118.229 7.26663 122.403 6.15233C122.675 6.07995 122.954 6.24107 123.026 6.51286C123.099 6.7843 122.938 7.0634 122.666 7.13578C118.905 8.13976 115.95 11.1009 115.002 14.9379L114.963 15.1005C114.614 16.6125 113.612 17.3339 112.8 16.3769C112.206 15.6771 112.06 14.1918 112.461 12.4553C113.515 7.89268 117.147 4.4426 121.663 3.55833Z" fill="white"/>
<path d="M65.2377 66.3362L65.5318 66.2294C68.3088 65.2327 70.6519 64.7932 71.2474 65.3987C71.7694 65.9298 72.2346 66.8916 72.6755 68.3024C72.7594 68.5707 72.6098 68.8561 72.3415 68.94C72.0732 69.0238 71.7878 68.8742 71.7039 68.6059C71.3225 67.3861 70.9331 66.5649 70.5653 66.1591L70.55 66.1431L70.5371 66.1438C70.4671 66.1295 70.3627 66.1222 70.2298 66.125C69.9364 66.1306 69.5355 66.1824 69.0567 66.2771C68.0715 66.4723 66.8264 66.8353 65.5899 67.2915C63.5228 68.054 61.8005 68.9501 60.8491 69.7595C60.4997 70.0567 59.8622 69.2288 60.4757 68.7548C61.5799 67.9015 63.2548 67.0677 65.2377 66.3362Z" fill="white"/>
<path d="M63.8412 56.7201C63.8412 58.418 65.6369 60.2565 66.0186 60.3609C66.2901 60.435 61.6185 63.479 61.6185 63.479C59.9303 63.701 58.9392 62.2742 58.9392 60.149C58.9392 59.8678 63.8412 56.4389 63.8412 56.7201Z" fill="white"/>
<path fill-rule="evenodd" clip-rule="evenodd" d="M58.3323 57.6124C58.9235 57.4972 59.3255 57.0048 59.2294 56.512C59.1337 56.0193 58.5769 55.7127 57.9853 55.8279C57.3941 55.9427 56.9925 56.4355 57.0882 56.9283C57.1839 57.421 57.741 57.7273 58.3323 57.6124Z" fill="#FFB61D"/>
<path d="M118.584 0.735414C118.861 0.68739 119.125 0.872875 119.173 1.14953C119.221 1.42654 119.036 1.69033 118.759 1.73835C117.442 1.96803 116.114 2.7653 114.744 4.03341C112.966 5.68015 111.791 7.95537 111.143 10.9892C110.621 13.4332 111.103 16.4876 112.467 19.1724C114.019 22.2268 116.764 22.982 119.964 23.5666C123.25 24.1666 124.158 23.796 127.263 22.6921L127.549 22.5884C127.973 22.4276 129.957 21.6516 130.434 21.5072C131.437 21.2037 132.122 21.2291 132.619 21.7581C132.811 21.9631 132.801 22.2853 132.596 22.4778C132.404 22.658 132.109 22.6604 131.914 22.491L131.876 22.4548C131.73 22.2989 131.427 22.2808 130.818 22.4555L130.729 22.4816C130.27 22.6204 128.118 23.4647 127.839 23.5666C124.486 24.7906 123.349 25.2196 119.782 24.5678C116.246 23.9223 113.247 22.9556 111.559 19.6335C110.093 16.7462 109.576 13.4555 110.148 10.7766C110.839 7.53881 112.119 5.07636 114.052 3.28625C115.565 1.88521 117.073 0.99885 118.584 0.735414Z" fill="white"/>
<path d="M142.531 41.2381C139.629 41.0899 137.344 43.331 137.32 46.3395C137.299 48.8743 138.727 50.9616 140.688 51.366C141.482 51.5292 143.004 51.3326 144.133 50.6992C145.849 49.7795 147.16 47.8888 147.325 46.2775C147.595 43.6526 145.469 41.3885 142.531 41.2381Z" fill="white"/>
<path d="M89.9479 40.7081C90.875 42.5799 92.3143 46.9039 91.6917 46.883C89.9625 46.8252 87.649 44.1679 86.0308 40.5744L85.9031 40.2856C84.4902 37.0231 83.6439 34.9734 84.6266 34.5808C85.6428 34.1747 88.035 36.8442 89.9479 40.7081Z" fill="white"/>
<path fill-rule="evenodd" clip-rule="evenodd" d="M84.6259 34.5405C85.6424 34.1344 88.0697 36.6817 89.9826 40.5456C90.9093 42.4175 91.5382 44.2135 91.7024 45.5011C91.7024 45.5011 88.5722 38.9054 86.6627 36.4896C85.9295 35.5619 84.6259 34.5405 84.6259 34.5405Z" fill="#E7EAEE"/>
<path d="M84.0935 51.1509C84.168 50.8798 84.4481 50.7208 84.7192 50.7952C84.9903 50.8697 85.1493 51.1498 85.0748 51.4209C84.9791 51.7696 83.6306 52.6842 80.689 54.4976L78.8321 55.6342C75.1662 57.8656 72.7202 59.2938 72.4143 59.2938C70.3903 59.2938 68.5664 57.3843 67.235 54.3716C66.0723 51.7411 65.4685 48.6098 65.7414 46.558C65.8263 45.9173 67.9599 44.2595 71.2547 42.0382L71.7266 41.7222C74.6411 39.7803 77.1328 38.3403 78.0341 38.1583C78.3097 38.1026 78.578 38.2811 78.6337 38.5568C78.6685 38.729 70.6342 45.5011 69.8495 49.9959C69.3181 53.0395 71.3271 58.2264 72.3241 58.2734L72.4143 58.2755C72.3332 58.2755 72.3593 58.2567 72.3687 58.2515L72.4605 58.2042C72.5281 58.1687 72.6084 58.1252 72.7007 58.0744L73.1242 57.8377C73.2864 57.7459 73.467 57.6425 73.6643 57.5283L74.1696 57.235C75.1342 56.6719 76.3376 55.9547 77.565 55.2121L78.7325 54.5025C80.152 53.6349 81.4348 52.8352 82.3987 52.2144L82.8953 51.8914C83.2026 51.6899 83.4626 51.5153 83.6703 51.3705L83.7458 51.3176C83.8603 51.2368 83.9557 51.1672 84.0298 51.1105C84.0298 51.1105 84.1137 51.0771 84.0935 51.1509Z" fill="white"/>
<path fill-rule="evenodd" clip-rule="evenodd" d="M85.1032 40.9928C83.8731 38.2617 83.3295 35.7589 83.7415 34.2433C82.9972 34.4796 82.0669 34.9049 81.1434 35.4349C79.9156 36.1389 78.9412 36.9264 78.9186 37.0973C78.6813 38.8836 79.592 42.3591 81.1054 45.4573C82.7243 48.7713 84.6505 50.9 86.1413 50.9C86.284 50.9 86.6926 50.8158 87.1022 50.6728C87.6847 50.4692 88.2304 50.1727 88.6772 49.7847C88.8996 49.5915 89.1296 49.3733 89.3697 49.1297L89.6593 48.8305C89.8301 48.6498 90.0062 48.4553 90.2815 48.1473L90.6643 47.7196L90.681 47.7016C88.7628 47.0007 86.7569 44.5302 85.2564 41.3265L85.1032 40.9928ZM77.9094 36.963C78.0677 35.7714 82.5294 33.1955 84.5656 33.0288C84.6509 32.9756 84.7417 32.9293 84.8391 32.8903C86.6024 32.186 89.289 35.2042 91.4445 39.4508L91.5921 39.7456C92.5651 41.7104 93.2287 43.6063 93.4093 45.024C93.6254 46.7188 93.1348 47.8421 91.8482 47.8999C91.8137 48.0332 91.7267 48.1449 91.6112 48.2124L91.5914 48.2225L91.5409 48.2726C91.4908 48.3245 91.4313 48.3889 91.3394 48.4908L90.7071 49.1966C90.4774 49.4496 90.3149 49.6211 90.0946 49.8445C89.8371 50.1055 89.5883 50.3415 89.345 50.5531C88.3595 51.4091 86.9024 51.9179 86.1413 51.9179C85.7377 51.9179 85.3294 51.8243 84.9205 51.6451C84.4838 52.1006 83.1391 52.9877 80.6896 54.4976L78.8326 55.6339C75.1668 57.8656 72.7207 59.2934 72.4148 59.2934C71.7216 59.2934 71.0521 59.0697 70.4176 58.6542C70.4117 58.658 70.4058 58.6622 70.3995 58.666L70.1403 58.8327C69.2386 59.4173 67.7965 60.3896 66.4588 61.2917L66.4584 61.292L66.3753 61.348C66.5486 62.5841 66.9422 63.8237 67.5578 65.0675C69.7443 64.3913 71.4759 64.163 71.9756 64.6714C72.4976 65.2025 72.9626 66.1643 73.4038 67.5751C73.4877 67.8434 73.3381 68.1288 73.0698 68.2127C72.8014 68.2965 72.5157 68.1472 72.4319 67.8789C72.0508 66.6589 71.6614 65.8376 71.2936 65.4318L71.2782 65.4158L71.2654 65.4165C71.1954 65.4022 71.091 65.3953 70.9581 65.3977C70.6647 65.4033 70.2638 65.4551 69.785 65.5501C68.7998 65.745 67.5546 66.108 66.3182 66.5642C63.4921 67.6068 61.3105 68.8989 60.8623 69.8779C60.7311 70.1643 60.7478 70.5836 60.9047 71.2257L60.9339 71.3415C60.9576 71.4324 60.982 71.5225 61.0143 71.6366L61.1981 72.2871L61.2057 72.3166C61.211 72.3361 61.2165 72.3574 61.2228 72.3814C61.2934 72.6535 61.1302 72.9316 60.8581 73.0022C60.5859 73.0728 60.3079 72.9093 60.2373 72.6371L60.1471 72.3079L59.9964 71.7769C59.9794 71.7139 59.9637 71.6558 59.9484 71.597C59.71 70.6772 59.6717 70.0327 59.9366 69.454C60.3862 68.4726 61.7921 67.4558 63.7496 66.5311L63.324 65.4315L63.2189 65.1534C63.0574 64.7194 62.8699 64.1313 62.7547 63.7022C61.2256 64.5267 60.1603 64.6645 59.093 64.0833L59.0102 64.0367C58.799 63.9145 58.5957 63.7736 58.3904 63.602L52.4246 67.2254C52.4803 67.3451 52.536 67.4655 52.5927 67.587C52.8603 68.1608 52.3885 68.5673 51.6643 68.8836L51.586 68.917C50.9637 69.1745 50.4021 69.2337 50.0676 68.8669C48.6805 67.3441 47.212 63.7019 48.0019 62.8688C48.1536 62.7087 48.5542 62.4707 49.3114 62.0733L49.3716 62.0419C49.3873 62.0312 49.4033 62.0214 49.4204 62.012L54.9971 58.9907C55.0099 58.9837 55.0228 58.9774 55.036 58.9719C54.6915 58.4022 54.3139 57.7682 53.8963 57.0607C53.833 56.958 53.8093 56.8383 53.8257 56.7228C53.8358 56.6493 53.8619 56.578 53.904 56.514C53.927 56.4788 53.9548 56.4461 53.9865 56.4169C55.1331 55.3297 56.6953 54.1959 58.6552 52.9751L58.8926 52.8279C59.741 52.3049 61.4612 51.3239 62.9224 50.4904C64.0562 49.8438 65.0341 49.286 65.3285 49.0998L65.3998 49.0525C65.5063 48.9745 65.633 48.9443 65.7544 48.9571C65.6577 48.0743 65.6493 47.2537 65.7419 46.5577C65.8268 45.9174 67.9608 44.2595 71.2553 42.0382L71.7272 41.7219C74.4886 39.8823 76.8703 38.4928 77.8795 38.1973C77.8523 37.7414 77.8614 37.3263 77.9094 36.963ZM77.9908 39.2295C77.0022 39.5907 74.5261 41.0607 71.8243 42.8821L71.3917 43.1758C70.1758 44.0054 69.0524 44.8142 68.204 45.4733L67.9684 45.6584C67.5898 45.9584 67.2836 46.217 67.0612 46.4244C66.9498 46.5281 66.8621 46.6172 66.8002 46.6882L66.7567 46.739C66.7473 46.7491 66.7449 46.7452 66.7483 46.7132L66.7511 46.6917C66.7497 46.7 66.749 46.707 66.7483 46.7132L66.7348 46.8225C66.2455 51.1182 69.3517 58.1335 72.3247 58.2734L72.3946 58.2748C72.4006 58.2752 72.4072 58.2755 72.4148 58.2755L72.3946 58.2748C72.3386 58.2721 72.3609 58.256 72.3692 58.2512L72.4611 58.2038C72.5286 58.1683 72.609 58.1252 72.7016 58.0744L73.1251 57.8374C73.2869 57.7455 73.4675 57.6422 73.6652 57.528L74.1701 57.2347C75.1348 56.6716 76.3382 55.9547 77.5656 55.2121L78.7331 54.5022C80.1526 53.635 81.4353 52.8353 82.3993 52.2141L82.8959 51.8915C83.2035 51.6896 83.4631 51.5149 83.6709 51.3705L83.7464 51.3176C83.8564 51.24 83.9486 51.1729 84.0217 51.1172C82.7104 50.155 81.4193 48.3781 80.2734 46.0715L80.1909 45.9041C79.0863 43.6428 78.2873 41.1943 77.9908 39.2295ZM65.895 49.9441C65.5275 50.1751 64.4442 50.7939 63.2388 51.4822C61.8102 52.2979 60.2105 53.2114 59.4271 53.6945C57.5771 54.8349 56.0849 55.8924 54.9776 56.8877L55.3444 57.5068C56.9497 60.2 57.8792 61.6174 58.6267 62.4181C58.3786 61.829 58.2498 61.0811 58.2498 60.1433C58.2498 60.1001 58.255 60.0583 58.2651 60.018C58.2157 59.8231 58.2853 59.6091 58.4576 59.4827L58.8042 59.2249C59.0123 59.0679 59.3544 58.8062 59.7434 58.509C60.5946 57.8583 61.6703 57.0363 62.0542 56.7614C63.2614 55.8966 64.1512 55.4115 64.9613 55.2431C65.3483 55.1627 65.649 55.3917 65.736 55.7463L65.7503 55.8106C65.7704 55.9161 65.7743 56.0201 65.7739 56.2467L65.7736 56.3184C65.7694 57.1654 65.8533 57.6543 66.2121 58.2188C66.4574 58.6054 66.8183 58.958 67.3208 59.2736C67.3733 59.3067 67.4179 59.3477 67.4537 59.3944C68.2642 58.8497 69.0239 58.3434 69.5842 57.9801C68.7013 57.1257 67.9058 55.8882 67.2355 54.3713C66.6109 52.9584 66.1477 51.4011 65.895 49.9441ZM92.3998 45.1528C92.2355 43.8652 91.6067 42.0695 90.68 40.1973C88.7667 36.3338 86.2332 33.4297 85.2167 33.8358C84.2343 34.2284 84.4908 37.0232 85.9037 40.2857L86.0314 40.5745C87.6496 44.168 89.9631 46.8256 91.6923 46.8834C92.3149 46.9039 92.5581 46.3955 92.3998 45.1528ZM55.5619 59.8325C56.4447 61.26 57.0899 62.2034 57.6523 62.8594L51.9966 66.2945C51.4172 65.0243 50.899 63.8421 50.3962 62.6412L55.4822 59.8857C55.5107 59.8704 55.5375 59.8523 55.5619 59.8325ZM66.5816 65.3887C66.0328 64.2535 65.6539 63.1152 65.4454 61.9748C64.7146 62.4665 64.0785 62.8921 63.6699 63.158C63.7399 63.5091 64.0002 64.3426 64.2243 64.9352L64.6419 66.0105L64.6819 66.1156C65.0926 65.9423 65.5213 65.7732 65.966 65.6093L66.2597 65.5021C66.368 65.4635 66.4751 65.4255 66.5816 65.3887ZM66.5635 59.9933C66.0422 59.6317 65.6424 59.2207 65.3528 58.7648C64.8841 58.0271 64.7609 57.3972 64.7557 56.4454L64.7553 56.3601L64.6833 56.3869C64.1672 56.5874 63.5512 56.9497 62.7773 57.4964L62.6471 57.5889C62.2786 57.8531 61.2297 58.6545 60.3841 59.3007L60.3838 59.3011C59.9136 59.6602 59.5065 59.9713 59.3133 60.1161L59.2677 60.1495C59.2688 61.8429 59.6916 62.62 60.4777 62.9972L60.5407 63.0261C60.7279 63.1089 60.8616 63.1507 61.2437 63.2551C61.2513 63.2572 61.259 63.2596 61.2663 63.262C61.6627 63.1287 62.1171 62.906 62.6597 62.588L62.8619 62.4665C63.3101 62.1871 64.5128 61.3759 65.8362 60.4836C66.0756 60.3218 66.3196 60.1575 66.5635 59.9933ZM49.4966 63.128L49.5745 63.3139C50.115 64.5959 50.677 65.8651 51.3145 67.2498L51.5623 67.7867C51.4812 67.8414 51.3744 67.8995 51.2568 67.9506C51.088 68.0244 50.9168 68.0763 50.788 68.0937L50.7469 68.0975L50.685 68.0234C50.203 67.43 49.6438 66.4222 49.2397 65.4196C49.0243 64.8858 48.8712 64.3962 48.802 64.02C48.7738 63.8668 48.7609 63.7381 48.7619 63.6403L48.7647 63.5759C48.7658 63.5603 48.7658 63.5523 48.7619 63.5509L48.7773 63.5408C48.8632 63.4813 49.0831 63.3529 49.4096 63.1754L49.4966 63.128ZM56.5182 62.0068C56.3212 61.806 55.999 61.8029 55.7982 61.9998C55.4453 62.3461 54.9504 62.6687 54.0867 63.1482L53.2073 63.6361C52.9748 63.7684 52.7848 63.8825 52.6126 63.9946C52.4685 64.0878 52.3401 64.178 52.2242 64.2674C52.0018 64.439 51.9608 64.7588 52.1327 64.9811C52.3046 65.2039 52.6244 65.2446 52.8468 65.0727C52.9386 65.0017 53.0448 64.9276 53.1666 64.8486C53.279 64.7755 53.4025 64.7 53.5456 64.6164L53.826 64.456L54.719 63.9612C55.5772 63.4795 56.0943 63.1353 56.5112 62.7264C56.7117 62.5298 56.7148 62.2076 56.5182 62.0068Z" fill="#00160A"/>
<path d="M45.1319 113.698C47.6775 127.89 57.2176 138.559 69.3917 141.074C71.6262 141.536 75.4959 141.597 79.5028 141.078C84.6654 140.41 89.6898 138.877 94.1084 136.393C106.247 129.869 115.457 116.555 116.651 104.9C117.7 94.6614 113.789 85.2035 106.708 78.4561C106.708 78.4561 84.4656 89.3809 73.5471 95.5906C64.0461 100.994 45.1319 113.698 45.1319 113.698Z" fill="white"/>
<path d="M96.9321 71.3769C92.3695 69.126 86.6536 67.3478 81.0484 67.061C60.491 66.01 44.3233 82.4325 44.1545 103.615C44.1545 103.615 67.0988 89.0003 79.0185 81.9491C84.9488 78.4409 96.9321 71.3769 96.9321 71.3769Z" fill="white"/>
<path fill-rule="evenodd" clip-rule="evenodd" d="M139.215 60.5817C139.146 64.1205 135.401 70.0111 129.381 76.6767C125.02 81.5052 119.946 86.1725 115.691 89.3174L115.426 89.5116L115.602 90.2932C116.637 94.8277 117.987 99.7571 117.477 104.728C116.238 116.793 106.801 130.406 94.3297 137.094C89.7814 139.646 84.6112 141.219 79.3076 141.904L78.802 141.966C74.8477 142.432 71.0635 142.355 68.7511 141.878C59.7751 140.028 52.1762 133.753 47.5815 124.672C47.5662 124.642 47.554 124.611 47.5453 124.579C46.9405 124.924 46.1265 125.309 45.7549 125.435L44.7366 125.779C33.7635 129.47 22.8847 132.558 18.4407 130.631C16.7487 129.897 16.1704 128.486 16.8782 126.591C17.5658 124.748 19.4722 122.375 22.671 119.42L22.8467 119.259C25.8775 116.48 32.6085 111.403 43.0394 104.027L43.0419 103.892C43.551 82.0369 60.5271 65.3764 81.8658 66.7364C88.3925 67.1523 93.5903 69.4717 96.1863 70.896L97.3281 70.2832C108.036 64.5576 116.628 60.533 123.183 58.1241C133.964 54.1625 139.295 56.0145 139.215 60.5817ZM123.535 60.4717C111.48 64.9014 92.4286 74.8643 65.9037 90.89L65.0974 91.3776C44.4433 103.881 30.7665 113.38 23.5344 120.009L23.178 120.338L22.8401 120.655C17.4113 125.784 16.4491 128.658 18.8458 129.697C22.9483 131.476 33.9653 128.477 44.7547 124.938L45.7549 124.608C46.7171 124.289 47.3553 124.106 47.7503 124.022C47.7674 124.01 47.7861 123.998 47.806 123.988C47.941 123.92 48.092 123.918 48.2225 123.969C48.2507 123.974 48.2692 123.983 48.2789 123.995C48.3666 124.043 48.4414 124.117 48.4902 124.213C52.9501 133.028 60.2995 138.4 68.9567 140.185C71.2041 140.648 74.9952 140.716 78.9405 140.228L79.1775 140.198C84.3589 139.529 89.4052 138.689 93.8401 136.201C106.027 129.666 115.261 116.347 116.464 104.624C116.979 99.614 116.322 94.6961 114.577 90.1189C114.433 90.2194 114.29 90.3183 114.149 90.415C113.881 90.5977 113.981 90.3016 114.449 89.5273C114.473 89.4263 114.529 89.3341 114.609 89.2652L114.754 89.0369C114.804 88.9572 114.857 88.8748 114.913 88.7885L115.516 88.2797C121.202 83.4703 125.572 79.3754 128.625 75.9942L128.974 75.6062C134.623 69.2841 138.135 63.6994 138.193 60.5629C138.257 57.1219 133.717 56.7297 123.535 60.4717ZM72.4207 124.845C73.7863 129.019 71.7202 131.704 68.0832 131.843C64.7226 131.971 61.6623 129.853 61.8182 126.844C61.9532 124.243 63.7339 121.463 65.9263 120.442C68.5778 119.207 71.0659 120.705 72.4207 124.845ZM66.4633 121.596C64.709 122.413 63.2001 124.769 63.0891 126.91C62.9788 129.043 65.3361 130.674 68.0345 130.571C70.8561 130.463 72.3041 128.581 71.2111 125.24C70.0731 121.762 68.3425 120.721 66.4633 121.596ZM100.189 116.339C101.931 119.632 101.475 122.867 98.7956 124.316L98.7205 124.356L98.6818 124.395C95.0884 127.953 90.5992 128.385 87.6722 125.806L87.5716 125.716C84.1998 122.627 85.003 117.32 90.3688 113.16C93.8217 110.482 98.0398 112.278 100.189 116.339ZM91.037 114.022C86.166 117.798 85.4812 122.321 88.3083 124.911C90.3361 126.769 93.3324 126.871 96.1307 125.069L96.1853 125.032L96.1647 125.028C95.9713 124.977 95.8157 124.821 95.7715 124.617L95.7628 124.565C95.7273 124.266 95.9413 123.995 96.2403 123.959C96.9244 123.878 97.5181 123.713 98.0217 123.477L98.0906 123.443L98.1738 123.357C98.5023 123.011 98.8228 122.635 99.1335 122.228L99.2369 122.092C99.3535 121.935 99.5376 121.86 99.7185 121.874L99.7325 121.876L99.7398 121.862C100.393 120.571 100.238 118.821 99.2818 116.959L99.2247 116.849C97.356 113.318 93.8627 111.831 91.037 114.022ZM123.474 74.8799C123.194 75.8759 122.341 77.2425 121.033 78.8611C118.753 81.6823 115.328 84.966 112.335 87.2117L112.999 86.4812C112.992 86.4757 112.987 86.4677 112.982 86.459L112.753 86.0379C111.255 83.3036 109.586 80.6066 106.889 78.408C99.9078 81.2863 91.9028 85.2208 84.6101 89.3348L82.2194 90.6861C64.6158 100.658 55.3541 106.628 45.45 113.967C45.8241 115.651 46.295 117.293 46.8591 118.885C46.9478 119.135 45.7911 120.07 45.5791 119.954C43.6035 121.278 40.5098 122.24 38.7482 122.29C37.0316 122.338 36.0401 121.643 36.551 120.258C36.9783 119.099 38.5882 117.446 41.4856 115.23L41.8159 114.98L42.4837 114.478C53.3886 106.314 64.1836 99.6889 84.1097 88.4481L84.9438 87.9804C98.6105 80.3515 114.436 73.4789 121.685 72.8449C123.175 72.7143 123.851 73.5388 123.474 74.8799ZM44.1241 114.955L41.8395 116.679C39.8013 118.224 38.3317 119.367 37.5382 120.1L37.4798 120.155C36.511 121.063 37.6075 121.303 38.7194 121.272C40.4037 121.224 42.9834 119.947 45.1674 118.785C44.7638 117.535 44.4154 116.256 44.1241 114.955ZM79.8617 109.428C80.1338 109.497 80.2987 109.774 80.2295 110.046C80.1602 110.319 79.8836 110.484 79.6111 110.415C78.2421 110.067 77.4337 110.201 77.1713 110.569C76.9973 110.814 77.0937 111.231 77.419 111.497C77.6734 111.705 78.012 111.804 78.2449 111.754C78.4474 111.709 78.5612 111.553 78.5612 111.162C78.5612 110.881 78.7891 110.653 79.07 110.653C79.3511 110.653 79.5791 110.881 79.5791 111.162C79.5791 112.012 79.1538 112.598 78.4616 112.748C77.9048 112.869 77.2565 112.679 76.7745 112.285C76.0629 111.703 75.8304 110.697 76.342 109.979C76.9023 109.191 78.1307 108.988 79.8617 109.428ZM57.502 107.559C58.287 107.794 58.625 108.397 58.7318 109.301L58.7422 109.399L58.7551 109.548C58.7568 109.573 58.7586 109.599 58.7603 109.626L58.7871 110.142L58.7951 110.259C58.7993 110.31 58.8038 110.352 58.809 110.389L58.8226 110.467L58.831 110.501L58.8452 110.514C59.0022 110.668 59.0439 110.909 58.9423 111.108L58.9162 111.153C58.7638 111.389 58.4489 111.457 58.2126 111.305C57.8875 111.095 57.8138 110.879 57.7744 110.26L57.7421 109.654C57.7382 109.6 57.7341 109.552 57.7289 109.499C57.6711 108.906 57.5267 108.629 57.2096 108.534C56.3205 108.268 55.8103 108.54 55.6489 109.134C55.5048 109.664 55.7132 110.22 56.0779 110.375L56.1702 110.409C56.4085 110.511 56.5349 110.78 56.4545 111.032C56.3692 111.3 56.0828 111.447 55.8152 111.362C54.8457 111.053 54.3853 109.902 54.6665 108.867C54.9804 107.713 56.072 107.131 57.502 107.559ZM94.2257 99.7651C95.6354 101.747 95.3734 104.268 93.1117 105.409C92.8608 105.536 92.5546 105.435 92.4279 105.184C92.3013 104.933 92.4022 104.627 92.6531 104.5C94.2904 103.674 94.4777 101.875 93.3961 100.355C92.3458 98.878 90.8835 98.7159 89.8785 100.311C88.8133 102.003 88.8909 102.996 89.6579 103.443C90.2665 103.799 91.2472 103.724 91.5165 103.434L91.5426 103.402C91.7058 103.173 92.0236 103.119 92.2525 103.282C92.4815 103.446 92.5351 103.763 92.3719 103.992C91.8061 104.787 90.1913 104.933 89.1449 104.323C87.8051 103.542 87.677 101.897 89.0172 99.7692C90.452 97.4902 92.7926 97.7502 94.2257 99.7651ZM73.1216 96.8461C73.3864 96.8461 73.6036 97.0482 73.6283 97.3061L73.6307 97.3552C73.6307 97.445 73.7139 97.5448 74.0128 97.7641L74.2954 97.967C74.6034 98.1914 74.752 98.331 74.8926 98.553C75.2134 99.0604 75.3954 99.5771 75.3954 100.185C75.3954 101.74 73.0583 103.856 70.5074 104.798C67.4492 105.926 64.9439 105.089 64.2622 101.952C64.2023 101.677 64.3767 101.406 64.6516 101.346C64.9262 101.286 65.1973 101.461 65.2571 101.735C65.7861 104.171 67.6128 104.781 70.1549 103.843C72.3501 103.032 74.3772 101.197 74.3772 100.185C74.3772 99.7929 74.2582 99.4547 74.032 99.0973L74.0013 99.0541C73.9495 98.9887 73.8684 98.9177 73.7226 98.8095L73.3868 98.5676C72.8289 98.1563 72.6128 97.8786 72.6128 97.3552C72.6128 97.074 72.8408 96.8461 73.1216 96.8461ZM75.511 68.633L75.1898 68.6692C57.82 70.7582 44.7899 84.6507 44.0793 103.293L45.9428 101.982C51.2922 98.2273 57.5013 93.9382 64.5702 89.1145L65.9476 88.2821C70.0599 85.8012 73.9919 83.4665 77.7451 81.2762C77.6766 81.1561 77.6574 81.0086 77.7041 80.8669C77.9664 80.0658 78.209 79.5275 78.6534 78.9884C80.044 77.3013 81.9493 76.4773 83.2992 77.5366C83.4321 77.641 83.4993 77.7979 83.4937 77.9549L84.6929 77.2707C88.4691 75.1211 92.0423 73.1358 95.4145 71.3123L94.0973 70.9375C92.144 70.3876 89.7139 69.7355 87.2932 69.2337C87.3155 70.8442 86.1096 72.1304 84.1066 73.0154C82.4034 73.7674 80.1846 74.1721 78.6068 74.0778C75.655 73.9021 73.9937 71.313 75.511 68.633ZM105.98 90.7387C107.226 94.1417 106.198 97.2365 103.088 97.2163C98.6564 97.1874 94.329 93.318 95.0289 89.8516C95.3407 88.3054 96.5034 86.9375 98.5249 86.2547C101.753 85.1644 104.712 87.2743 105.98 90.7387ZM98.8506 87.2193C97.1799 87.7834 96.2681 88.8563 96.0266 90.0531C95.4715 92.8044 99.239 96.173 103.094 96.1984C105.303 96.2127 106.063 93.9256 105.024 91.0887C103.925 88.0865 101.469 86.3351 98.8506 87.2193ZM61.4215 75.1691L61.4577 75.2217L61.7027 75.6111C61.8227 75.8091 61.9303 76.0029 62.0326 76.2124C63.1597 78.5172 63.1309 81.5389 61.2228 85.7334C60.3587 87.6334 58.1569 90.1871 56.2342 91.711C53.7791 93.657 51.9458 94.0989 49.7579 93.8585L49.1086 93.7823L49.0296 93.7749C48.9861 93.7718 48.9582 93.7718 48.9279 93.7725L48.8834 93.7746C48.8496 93.776 48.8378 93.7746 48.8357 93.7701V93.7666L48.8194 93.793C48.6718 94.0046 48.3851 94.0742 48.1547 93.9462C47.909 93.8094 47.8206 93.4997 47.9574 93.254C48.1404 92.9248 48.446 92.7762 48.835 92.7577C48.9384 92.7529 49.0473 92.7564 49.1771 92.7671L49.3288 92.7818L49.7489 92.8329C51.7419 93.0744 53.3274 92.7156 55.6019 90.9133C57.4076 89.482 59.5068 87.0474 60.2961 85.3119C62.0816 81.3868 62.1077 78.6829 61.118 76.6596C61.0519 76.525 60.9833 76.3969 60.9089 76.2681L60.8024 76.0903L60.5887 75.7527C60.4394 75.5147 60.5115 75.2005 60.7495 75.0512C60.9729 74.9109 61.2628 74.9656 61.4215 75.1691ZM121.774 73.8589C118.52 74.1436 113.419 75.751 107.538 78.1421L107.71 78.2942C109.347 79.7624 112.649 83.2445 113.682 85.7282L114.712 84.5864C117.252 81.761 119.095 79.6392 120.241 78.2211L120.473 77.9305C121.568 76.5406 122.276 75.3793 122.494 74.6043L122.525 74.4867C122.661 73.9275 122.503 73.7949 121.774 73.8589ZM73.0346 75.5123C74.3013 76.1247 74.8157 77.4886 73.9822 78.7247C73.8249 78.9578 73.5086 79.0194 73.2754 78.8621C73.0423 78.7052 72.981 78.3888 73.1379 78.1557C73.5966 77.4757 73.3377 76.7898 72.5912 76.4289C71.8055 76.0489 70.9442 76.2674 70.4998 77.0971C70.0902 77.8616 70.062 78.8962 70.3891 79.5741C70.6762 80.1692 71.0938 80.2833 71.7313 79.8035C71.9561 79.6343 72.2753 79.6792 72.4444 79.904C72.6132 80.1285 72.5683 80.4476 72.3438 80.6167C71.1818 81.4913 70.032 81.1774 69.4721 80.0164C69.0027 79.0434 69.0402 77.6657 69.6023 76.6161C70.3195 75.2777 71.7818 74.9067 73.0346 75.5123ZM79.4388 79.6361C79.2015 79.9239 79.032 80.2277 78.8747 80.6174C80.1863 79.8557 81.4757 79.1109 82.7431 78.3843L82.7062 78.3627L82.6707 78.3373C81.8936 77.7273 80.5236 78.3199 79.4388 79.6361ZM77.268 68.4774L76.8229 68.5088L76.793 68.5463C75.0335 70.7701 75.7114 72.5748 78.1143 72.8313C79.8401 73.0154 84.4215 71.7347 84.9592 71.2855C85.4826 70.8477 86.1444 69.8413 86.2464 69.0255C84.6915 68.7332 83.1704 68.5185 81.8136 68.4489C80.4272 68.3783 79.0599 68.3797 77.7155 68.451L77.268 68.4774Z" fill="#00160A"/>
<path d="M123.225 60.5976C134.006 56.636 133.759 57.8115 123.576 61.5532C111.522 65.9829 66.0182 93.7397 66.0182 93.7397C45.3641 106.243 43.8189 104.313 63.8384 92.1462L65.0724 91.3977C65.3048 91.2567 88.0975 76.8718 104.384 69.1754C106.217 68.3096 121.998 61.0486 123.225 60.5976Z" fill="white"/>
<path fill-rule="evenodd" clip-rule="evenodd" d="M141.84 40.8755C138.5 40.7047 135.892 43.3007 135.865 46.6972C135.842 49.5432 137.475 51.9593 139.814 52.4416C140.43 52.5687 142.208 52.5687 143.75 51.7035L143.878 51.6332C145.822 50.5325 147.144 48.4383 147.321 46.7153C147.635 43.6609 145.181 41.0464 141.84 40.8755ZM136.592 46.7031C136.592 46.6812 136.593 46.6593 136.593 46.6374C136.614 46.6307 136.634 46.622 136.654 46.6113C139.273 45.2005 140.89 44.1251 141.536 43.3488C141.962 42.8365 142.17 42.2581 142.153 41.63C142.593 41.6787 143.012 41.7751 143.405 41.9133C143.403 41.9321 143.402 41.9515 143.402 41.971C143.434 42.8751 143.193 43.5976 142.681 44.1603C142.092 44.8072 141.379 45.4225 140.568 46.0026C139.701 46.6231 138.77 47.1708 137.839 47.6399C137.622 47.7496 137.415 47.8491 137.221 47.9392L136.94 48.0666C136.9 48.0843 136.862 48.1007 136.828 48.1157L136.744 48.1508C136.641 47.6925 136.588 47.2067 136.592 46.7031ZM136.949 48.8538C137.179 49.4923 137.512 50.0582 137.925 50.5193L138.143 50.394C141.56 48.4153 143.682 46.8608 144.485 45.7642C145.297 44.6555 145.587 43.8043 145.405 43.2252C145.401 43.2116 145.397 43.1981 145.395 43.1842C145.037 42.8087 144.611 42.4861 144.131 42.231C144.111 43.1922 143.807 44.0037 143.219 44.6499C142.593 45.3376 141.841 45.9859 140.991 46.5942C140.091 47.2384 139.129 47.8045 138.166 48.2893C137.885 48.4309 137.621 48.5569 137.378 48.6672L137.094 48.7929L136.949 48.8538ZM139.671 51.6562C139.241 51.5278 138.841 51.3173 138.481 51.0382C142 49.0034 144.189 47.3998 145.072 46.194C145.62 45.4458 145.97 44.7731 146.113 44.1728C146.289 44.5034 146.423 44.8559 146.509 45.2238C146.491 45.2614 146.479 45.3028 146.474 45.3466C146.385 46.1968 145.947 47.0403 145.146 47.8808C144.377 48.6871 142.718 49.8504 140.183 51.3548L139.671 51.6562ZM140.9 51.7738C141.68 51.7244 142.635 51.4954 143.406 51.0629C144.841 50.2934 145.993 48.8447 146.428 47.4485C146.218 47.7638 145.966 48.0749 145.673 48.3826C144.883 49.2105 143.296 50.3362 140.9 51.7738ZM136.804 45.7023L136.674 45.7726C137.087 43.37 139.007 41.646 141.424 41.5959C141.45 42.0681 141.303 42.4916 140.976 42.8842C140.449 43.5182 139.05 44.4676 136.804 45.7023Z" fill="#00160A"/>
<path fill-rule="evenodd" clip-rule="evenodd" d="M168.089 33.9085C168.157 33.9161 168.204 33.9777 168.197 34.0449C168.196 34.1441 168.132 34.198 168.047 34.2328C167.969 34.2638 167.846 34.252 167.774 34.2617C166.986 34.3223 166.367 33.7432 166.095 32.9964C165.834 32.2788 165.903 31.421 166.378 30.892C166.433 30.8297 166.527 30.8235 166.59 30.8781C166.652 30.9327 167.006 31.0277 166.952 31.09C166.56 31.547 166.295 31.8243 166.665 32.909C167.034 33.9937 168.039 33.9026 168.089 33.9085Z" fill="#E7EAEE"/>
<path fill-rule="evenodd" clip-rule="evenodd" d="M42.7193 41.6748C42.5126 41.5324 42.2297 41.585 42.0874 41.7921C41.9454 41.9991 41.9979 42.282 42.205 42.424C42.4322 42.5799 42.633 42.724 42.8105 42.858C42.6195 43.0101 42.4288 43.1841 42.2304 43.3821L41.8285 43.7903C41.652 43.9688 41.6531 44.2566 41.8312 44.433C42.0098 44.6098 42.2976 44.6084 42.474 44.4302L42.9563 43.943C43.1526 43.7516 43.3367 43.5919 43.5215 43.459C43.9325 43.8665 44.0577 44.1651 44.0644 44.4622V44.5381L44.0668 44.5848C44.0901 44.8141 44.2836 44.9926 44.5189 44.9926C44.7698 44.9926 44.9733 44.7894 44.9733 44.5381V44.449C44.9646 43.9858 44.8014 43.5456 44.3616 43.0424C44.6521 42.9558 44.9796 42.9074 45.3763 42.8865C45.6272 42.8736 45.8197 42.6596 45.8068 42.4091C45.7936 42.1585 45.5799 41.9657 45.329 41.9789C44.6396 42.0148 44.104 42.13 43.6269 42.3482C43.4275 42.1853 43.202 42.0144 42.9469 41.8335L42.7193 41.6748Z" fill="#00160A"/>
<path fill-rule="evenodd" clip-rule="evenodd" d="M110.82 141.262L111.135 141.263C112.897 141.279 114.274 141.438 116.867 141.854C117.165 141.902 117.367 142.182 117.319 142.479C117.271 142.777 116.992 142.979 116.694 142.931L115.844 142.798C113.699 142.468 112.462 142.352 110.82 142.352C105.12 142.352 101.482 145.92 102.097 151.392C102.131 151.692 101.916 151.961 101.616 151.995C101.317 152.029 101.047 151.813 101.013 151.514C100.321 145.36 104.501 141.262 110.82 141.262ZM115.234 143.464L115.181 143.417C115.129 143.373 115.05 143.379 115.007 143.43C114.962 143.482 114.969 143.56 115.02 143.604L115.075 143.651C115.126 143.695 115.204 143.689 115.249 143.637C115.292 143.586 115.287 143.508 115.234 143.464ZM105.351 144.604C105.155 144.447 104.869 144.478 104.712 144.674C104.077 145.464 103.614 146.234 103.326 146.985C103.045 147.716 102.949 148.944 103.022 150.7L103.04 151.07C103.053 151.321 103.267 151.514 103.517 151.501C103.768 151.487 103.96 151.273 103.947 151.023C103.851 149.188 103.933 147.939 104.174 147.311C104.427 146.654 104.842 145.964 105.42 145.243C105.578 145.048 105.547 144.762 105.351 144.604ZM110.311 143.101C110.534 142.985 110.808 143.072 110.924 143.295C111.039 143.518 110.952 143.792 110.729 143.908C109.806 144.386 109.101 145.188 108.609 146.33C108.082 147.557 107.651 148.651 107.315 149.613C107.232 149.85 106.973 149.976 106.736 149.893C106.499 149.81 106.374 149.551 106.457 149.314C106.8 148.33 107.239 147.216 107.775 145.972C108.346 144.643 109.193 143.68 110.311 143.101ZM112.953 143.077C112.788 142.888 112.5 142.869 112.312 143.034C111.553 143.699 110.97 144.304 110.562 144.852C110.157 145.396 109.683 146.21 109.134 147.299C109.021 147.523 109.111 147.796 109.335 147.91C109.559 148.023 109.833 147.933 109.946 147.708C110.473 146.662 110.924 145.889 111.291 145.394C111.656 144.904 112.197 144.344 112.911 143.718C113.1 143.553 113.118 143.266 112.953 143.077ZM111.294 148.209C111.105 148.374 110.818 148.356 110.652 148.167C110.487 147.978 110.506 147.691 110.695 147.525C111.409 146.9 111.949 146.34 112.314 145.849C112.682 145.355 113.132 144.582 113.66 143.535C113.773 143.311 114.046 143.221 114.27 143.334C114.494 143.447 114.584 143.72 114.471 143.944C113.922 145.033 113.448 145.848 113.043 146.392C112.635 146.94 112.052 147.545 111.294 148.209ZM107.853 143.471C107.646 143.328 107.363 143.38 107.221 143.587C106.204 145.058 105.556 146.158 105.269 146.905C104.981 147.654 104.782 148.664 104.667 149.941C104.644 150.191 104.828 150.412 105.078 150.435C105.328 150.457 105.549 150.273 105.572 150.023C105.68 148.823 105.864 147.89 106.117 147.231C106.353 146.616 106.904 145.667 107.764 144.401L107.968 144.103C108.111 143.897 108.059 143.614 107.853 143.471Z" fill="#00160A"/>
<path fill-rule="evenodd" clip-rule="evenodd" d="M99.2252 140.791L99.538 141.487L100.252 141.692C100.291 141.703 100.313 141.743 100.302 141.782C100.298 141.794 100.292 141.805 100.283 141.813L99.7409 142.353L99.7712 143.13C99.7729 143.17 99.7416 143.204 99.7016 143.206C99.688 143.206 99.6744 143.203 99.6626 143.196L99.0487 142.846C99.0292 142.836 99.0063 142.834 98.9857 142.842L98.3291 143.103C98.2918 143.118 98.2494 143.1 98.2344 143.062C98.2295 143.05 98.2281 143.036 98.2306 143.023L98.3687 142.257L97.9069 141.647C97.8826 141.615 97.8888 141.569 97.9209 141.545C97.931 141.538 97.9424 141.533 97.9546 141.531L98.6903 141.428L99.0971 140.782C99.1187 140.748 99.1636 140.738 99.1973 140.759C99.2095 140.767 99.2193 140.778 99.2252 140.791Z" fill="#00160A"/>
<path fill-rule="evenodd" clip-rule="evenodd" d="M124.514 43.356C124.682 43.5042 124.89 43.7715 125.075 44.061L125.312 43.9556L125.592 43.8355C125.649 43.8098 125.685 43.7896 125.696 43.7732C125.728 43.713 125.803 43.69 125.864 43.7221C125.923 43.7541 125.947 43.8286 125.915 43.8888C125.893 43.9458 125.735 44.1247 125.442 44.3001C125.39 44.3318 125.331 44.3613 125.268 44.3902C125.376 44.5917 125.461 44.7869 125.501 44.9432C125.56 45.1736 125.513 45.3371 125.433 45.3946C125.356 45.4513 125.161 45.4617 124.865 45.216C124.81 45.1746 124.802 45.097 124.844 45.0431C124.885 44.9895 124.962 44.9794 125.016 45.0208C125.073 45.0626 125.13 45.0859 125.176 45.1029L125.153 45.0149C125.145 44.9832 125.134 44.9505 125.118 44.9181C125.066 44.8023 124.998 44.6697 124.922 44.5336C124.691 44.6209 124.427 44.7003 124.142 44.7386C124.004 44.757 123.862 44.7608 123.715 44.7594C123.631 44.765 123.558 44.701 123.552 44.6164C123.547 44.5319 123.611 44.4588 123.695 44.4532C124.038 44.4201 124.354 44.3335 124.634 44.2364L124.725 44.2033C124.574 43.9671 124.412 43.7523 124.273 43.6312C124.198 43.5644 124.19 43.4489 124.256 43.3727C124.324 43.2968 124.439 43.2892 124.514 43.356Z" fill="#00160A"/>
<path fill-rule="evenodd" clip-rule="evenodd" d="M24.4441 104.884C23.9687 104.915 23.2149 105.036 22.599 105.28C22.0718 105.49 22.0717 111.179 23.8737 111.633C25.6652 112.231 27.6244 111.44 27.3902 108.395C27.3861 108.331 27.3345 108.158 27.2754 107.959C27.1891 107.669 27.0861 107.324 27.0923 107.189C27.1167 106.71 26.9911 106.307 26.6594 106.054C26.3024 105.297 25.6022 104.809 24.4441 104.884ZM24.1862 110.248C23.3044 109.589 23.3353 106.514 24.3418 106.308C24.9681 106.79 25.5399 107.485 25.7327 108.825C25.5169 109.562 25.0614 109.989 24.663 110.362C24.6205 110.402 24.5784 110.442 24.5373 110.481C24.4235 110.416 24.3066 110.337 24.1862 110.248Z" fill="white"/>
<path fill-rule="evenodd" clip-rule="evenodd" d="M23.1161 108.455C23.0364 107.977 23.0907 107.442 23.3315 106.87C23.4404 106.611 23.7272 106.4 24.086 106.259C24.5053 106.093 25.0183 106.011 25.3419 105.99C26.1301 105.939 26.6062 106.269 26.8491 106.781C27.0746 106.952 27.1602 107.225 27.1435 107.548C27.1362 107.701 27.3387 108.257 27.3457 108.364C27.504 110.423 26.1708 110.958 24.9518 110.555C24.4886 110.79 24.0418 110.829 23.7056 110.579C23.4042 110.356 23.1725 109.885 23.1196 109.055C23.1053 108.841 23.1043 108.641 23.1161 108.455ZM25.2786 107.099C24.5791 107.237 24.5499 109.256 25.1606 109.686C25.2438 109.744 25.3252 109.796 25.4038 109.838C25.6993 109.572 25.9192 109.357 26.0442 108.916C26.1691 108.476 25.7122 107.414 25.2786 107.099Z" fill="#FFB61D"/>
<path fill-rule="evenodd" clip-rule="evenodd" d="M70.8475 158.884C70.6408 158.742 70.3579 158.794 70.2156 159.001C70.0736 159.208 70.1261 159.491 70.3332 159.633C70.5604 159.789 70.7612 159.933 70.9387 160.067C70.7477 160.219 70.557 160.393 70.3586 160.591L69.9567 160.999C69.7802 161.178 69.7813 161.465 69.9598 161.642C70.138 161.819 70.4258 161.818 70.6025 161.639L71.0845 161.152C71.2808 160.961 71.4649 160.801 71.6497 160.668C72.0607 161.075 72.1859 161.374 72.1926 161.671V161.747L72.195 161.794C72.2183 162.023 72.4118 162.202 72.647 162.202C72.898 162.202 73.1015 161.998 73.1015 161.747V161.658C73.0932 161.195 72.9296 160.755 72.4898 160.251C72.7803 160.165 73.1078 160.117 73.5049 160.096C73.7554 160.082 73.9479 159.869 73.935 159.618C73.9218 159.367 73.7081 159.175 73.4572 159.188C72.7682 159.224 72.2322 159.339 71.7551 159.557C71.5561 159.394 71.3302 159.223 71.0751 159.042L70.8475 158.884Z" fill="#00160A"/>
<path fill-rule="evenodd" clip-rule="evenodd" d="M70.8475 158.884C70.6408 158.742 70.3579 158.794 70.2156 159.001C70.0736 159.208 70.1261 159.491 70.3332 159.633C70.5604 159.789 70.7612 159.933 70.9387 160.067C70.7477 160.219 70.557 160.393 70.3586 160.591L69.9567 160.999C69.7802 161.178 69.7813 161.465 69.9598 161.642C70.138 161.819 70.4258 161.818 70.6025 161.639L71.0845 161.152C71.2808 160.961 71.4649 160.801 71.6497 160.668C72.0607 161.075 72.1859 161.374 72.1926 161.671V161.747L72.195 161.794C72.2183 162.023 72.4118 162.202 72.647 162.202C72.898 162.202 73.1015 161.998 73.1015 161.747V161.658C73.0932 161.195 72.9296 160.755 72.4898 160.251C72.7803 160.165 73.1078 160.117 73.5049 160.096C73.7554 160.082 73.9479 159.869 73.935 159.618C73.9218 159.367 73.7081 159.175 73.4572 159.188C72.7682 159.224 72.2322 159.339 71.7551 159.557C71.5561 159.394 71.3302 159.223 71.0751 159.042L70.8475 158.884Z" fill="#00160A"/>
<path fill-rule="evenodd" clip-rule="evenodd" d="M86.3801 146.433L86.6933 147.129L87.4074 147.334C87.446 147.345 87.4683 147.385 87.4572 147.424C87.4537 147.436 87.4474 147.447 87.4387 147.455L86.8962 147.995L86.9265 148.772C86.9282 148.812 86.8969 148.846 86.8569 148.848C86.8433 148.848 86.8297 148.845 86.8179 148.838L86.2037 148.488C86.1845 148.478 86.1616 148.476 86.141 148.484L85.4844 148.745C85.4468 148.76 85.4047 148.741 85.3897 148.704C85.3848 148.692 85.3834 148.678 85.3859 148.665L85.524 147.899L85.0622 147.289C85.0379 147.257 85.0442 147.211 85.0762 147.187C85.0859 147.18 85.0977 147.175 85.1099 147.173L85.8456 147.07L86.2524 146.424C86.274 146.39 86.3189 146.38 86.3526 146.401C86.3648 146.409 86.3746 146.42 86.3801 146.433Z" fill="#00160A"/>
<path fill-rule="evenodd" clip-rule="evenodd" d="M46.9796 141.651L47.512 142.198L48.2529 142.146C48.2929 142.143 48.3277 142.174 48.3305 142.214C48.3315 142.226 48.3291 142.238 48.3239 142.25L47.9989 142.942L48.2933 143.662C48.3082 143.7 48.2905 143.742 48.2532 143.757C48.2407 143.762 48.2271 143.764 48.2136 143.762L47.5169 143.643C47.4953 143.639 47.473 143.646 47.4563 143.66L46.9284 144.13C46.8985 144.157 46.8525 144.154 46.8257 144.124C46.8167 144.114 46.8108 144.102 46.8083 144.088L46.6768 143.322L46.0337 142.906C45.9999 142.884 45.9905 142.839 46.0121 142.806C46.0191 142.795 46.0281 142.787 46.0393 142.781L46.6949 142.432L46.8564 141.686C46.8651 141.647 46.9037 141.622 46.943 141.63C46.9569 141.634 46.9698 141.641 46.9796 141.651Z" fill="#00160A"/>
<path fill-rule="evenodd" clip-rule="evenodd" d="M38.6675 91.8119L38.9807 92.5079L39.6945 92.7129C39.7331 92.724 39.7554 92.7641 39.7446 92.8027C39.7411 92.8145 39.7345 92.8257 39.7258 92.8344L39.1833 93.3741L39.2139 94.1512C39.2153 94.1916 39.184 94.2253 39.144 94.2267C39.1304 94.2274 39.1172 94.2243 39.1053 94.2173L38.4911 93.8676C38.472 93.8568 38.4487 93.855 38.4281 93.8634L37.7714 94.1241C37.7342 94.139 37.6918 94.1206 37.6771 94.0833C37.6719 94.0708 37.6705 94.0569 37.673 94.0437L37.8115 93.2784L37.3493 92.668C37.325 92.636 37.3316 92.5904 37.3636 92.5661C37.3733 92.5587 37.3848 92.5539 37.3973 92.5521L38.1327 92.4488L38.5398 91.8029C38.5611 91.7691 38.606 91.759 38.6401 91.7803C38.6522 91.7879 38.6616 91.7991 38.6675 91.8119Z" fill="#00160A"/>
<path fill-rule="evenodd" clip-rule="evenodd" d="M38.5941 92.505L38.727 92.8005L39.0304 92.8875C39.0468 92.8924 39.0562 92.9094 39.0513 92.9258C39.0499 92.931 39.0472 92.9355 39.0437 92.9393L38.8133 93.1687L38.8262 93.4986C38.8269 93.5156 38.8133 93.5299 38.7962 93.5306C38.7907 93.5309 38.7848 93.5295 38.7799 93.5268L38.5192 93.3782C38.5109 93.3736 38.5011 93.3729 38.4924 93.3761L38.2133 93.4871C38.1977 93.4933 38.1796 93.4857 38.1733 93.4697C38.1712 93.4645 38.1705 93.4585 38.1716 93.453L38.2304 93.1276L38.0341 92.8687C38.0237 92.8551 38.0265 92.8356 38.04 92.8252C38.0442 92.8221 38.0491 92.82 38.0543 92.8193L38.3668 92.7754L38.5398 92.5012C38.5488 92.4866 38.568 92.4824 38.5822 92.4915C38.5874 92.4946 38.5916 92.4995 38.5941 92.505Z" fill="#E7EAEE"/>
<path fill-rule="evenodd" clip-rule="evenodd" d="M1.43711 122.347L1.74997 123.043L2.46406 123.248C2.50269 123.259 2.52496 123.299 2.51382 123.337C2.51034 123.35 2.50408 123.36 2.49538 123.369L1.95285 123.909L1.98313 124.686C1.98487 124.726 1.95355 124.76 1.91353 124.762C1.89996 124.762 1.88638 124.759 1.87455 124.752L1.26068 124.402C1.24119 124.392 1.21822 124.39 1.19769 124.398L0.541016 124.659C0.503781 124.674 0.461323 124.656 0.446359 124.618C0.441487 124.606 0.440095 124.592 0.442531 124.578L0.580688 123.813L0.118888 123.203C0.0945284 123.171 0.100795 123.125 0.132811 123.101C0.142903 123.094 0.154387 123.089 0.166567 123.087L0.902238 122.984L1.30905 122.338C1.33063 122.304 1.37552 122.294 1.40927 122.315C1.42145 122.323 1.4312 122.334 1.43711 122.347Z" fill="#00160A"/>
<path fill-rule="evenodd" clip-rule="evenodd" d="M32.9033 59.8537L33.1305 60.0124C33.3859 60.1934 34.3391 61.0919 34.5382 61.2548C35.0149 61.0359 35.5505 60.921 36.2399 60.8852C36.4904 60.872 36.7045 61.0648 36.7177 61.3153C36.7306 61.5659 36.5381 61.7799 36.2872 61.7928C35.8901 61.8137 35.5627 61.862 35.2721 61.9487C35.7123 62.4522 35.8755 62.8925 35.8842 63.355V63.4444C35.8842 63.6957 35.6806 63.8989 35.4297 63.8989C35.1945 63.8989 35.001 63.72 34.9777 63.491L34.9752 63.4444V63.3682C34.9686 63.0713 34.8434 62.7728 34.4324 62.3652C34.2476 62.4982 34.0635 62.6579 33.8672 62.849L33.3849 63.3365C33.2084 63.5147 32.9207 63.5161 32.7421 63.3393C32.564 63.1625 32.5629 62.8751 32.7393 62.6965L33.1413 62.2883C33.3396 62.0903 33.5304 61.9163 33.7211 61.7643C33.3859 60.9987 32.129 60.1781 32.2713 59.971C32.4133 59.7643 32.6962 59.7118 32.9033 59.8537Z" fill="#00160A"/>
<path fill-rule="evenodd" clip-rule="evenodd" d="M120.59 112.268L121.21 112.714L121.93 112.535C121.969 112.525 122.009 112.549 122.018 112.588C122.022 112.6 122.021 112.613 122.018 112.624L121.818 113.363L122.233 114.021C122.255 114.055 122.244 114.1 122.211 114.121C122.199 114.128 122.186 114.133 122.172 114.133L121.465 114.137C121.443 114.137 121.423 114.147 121.409 114.164L120.971 114.719C120.946 114.75 120.9 114.756 120.868 114.73C120.858 114.722 120.85 114.711 120.845 114.698L120.582 113.966L119.877 113.669C119.84 113.653 119.823 113.61 119.838 113.573C119.843 113.562 119.851 113.552 119.86 113.544L120.445 113.087L120.475 112.324C120.477 112.284 120.511 112.253 120.551 112.254C120.565 112.255 120.579 112.26 120.59 112.268Z" fill="#00160A"/>
<path fill-rule="evenodd" clip-rule="evenodd" d="M127.703 83.7841L127.891 84.524L128.558 84.8497C128.595 84.8671 128.61 84.911 128.592 84.9468C128.587 84.9579 128.578 84.9677 128.568 84.9746L127.94 85.4121L127.835 86.1829C127.83 86.2226 127.793 86.2504 127.753 86.2452C127.74 86.2431 127.727 86.2375 127.717 86.2288L127.173 85.7778C127.156 85.7639 127.133 85.7583 127.112 85.7629L126.42 85.9056C126.38 85.9136 126.342 85.8885 126.334 85.8492C126.331 85.8356 126.332 85.822 126.337 85.8092L126.606 85.0794L126.257 84.3984C126.238 84.3625 126.252 84.3187 126.288 84.3006C126.299 84.2947 126.311 84.2922 126.324 84.2926L127.066 84.3183L127.579 83.7532C127.606 83.7232 127.652 83.7212 127.682 83.7483C127.693 83.7577 127.7 83.7702 127.703 83.7841Z" fill="#00160A"/>
<path fill-rule="evenodd" clip-rule="evenodd" d="M111.505 54.0114L111.693 54.7513L112.36 55.077C112.396 55.0948 112.411 55.1383 112.394 55.1744C112.388 55.1856 112.38 55.195 112.37 55.2019L111.742 55.6397L111.637 56.4102C111.631 56.4499 111.595 56.4777 111.555 56.4725C111.542 56.4708 111.529 56.4652 111.519 56.4565L110.974 56.0055C110.958 55.9912 110.935 55.9856 110.913 55.9902L110.221 56.1328C110.182 56.1412 110.143 56.1158 110.135 56.0765C110.133 56.0632 110.134 56.0493 110.138 56.0364L110.407 55.307L110.058 54.6257C110.04 54.5898 110.054 54.5463 110.09 54.5279C110.101 54.5223 110.113 54.5195 110.126 54.5199L110.868 54.5456L111.381 53.9805C111.408 53.9509 111.454 53.9484 111.483 53.9756C111.494 53.985 111.502 53.9975 111.505 54.0114Z" fill="#00160A"/>
<path fill-rule="evenodd" clip-rule="evenodd" d="M159.358 61.2599L159.634 61.2352C159.946 61.2098 160.229 61.1959 160.487 61.1924C160.711 60.7188 161.048 60.2862 161.553 59.8157C161.736 59.6445 162.024 59.6546 162.195 59.838C162.366 60.0217 162.356 60.3092 162.172 60.4804C161.882 60.7518 161.662 60.9993 161.495 61.2526C162.156 61.3553 162.564 61.5874 162.868 61.9364L162.925 62.005C163.086 62.1971 163.061 62.4838 162.869 62.6453C162.689 62.7963 162.426 62.7838 162.261 62.6234L162.229 62.5893L162.18 62.5308C161.984 62.3078 161.696 62.1592 161.119 62.1115C161.063 62.3321 161.025 62.5726 160.997 62.8451L160.941 63.5285C160.92 63.7788 160.701 63.9646 160.451 63.9441C160.201 63.9232 160.015 63.7036 160.035 63.4534L160.081 62.8823C160.105 62.6032 160.139 62.3471 160.188 62.108C159.967 62.1195 159.72 62.1383 159.446 62.1647C159.196 62.1887 158.973 62.006 158.949 61.7562C158.925 61.5063 159.108 61.2843 159.358 61.2599Z" fill="#00160A"/>
<path fill-rule="evenodd" clip-rule="evenodd" d="M122.659 92.6324C122.576 92.8401 122.397 93.1279 122.187 93.4001L122.368 93.5869L122.576 93.8093L122.623 93.8539C122.643 93.872 122.659 93.8827 122.67 93.8859C122.738 93.8956 122.785 93.9579 122.776 94.0258C122.766 94.0922 122.704 94.1403 122.637 94.1305C122.576 94.1291 122.353 94.0425 122.089 93.8274C122.041 93.7884 121.993 93.7435 121.944 93.6941C121.792 93.8646 121.638 94.0111 121.504 94.102C121.308 94.2373 121.138 94.2481 121.057 94.1931C120.977 94.1399 120.901 93.9607 121.031 93.5984C121.051 93.5326 121.121 93.4982 121.185 93.5187C121.25 93.5393 121.286 93.6082 121.266 93.6736C121.246 93.7408 121.243 93.8023 121.243 93.8514L121.318 93.8003C121.345 93.7811 121.372 93.7595 121.397 93.7345C121.488 93.645 121.589 93.5361 121.691 93.4185C121.53 93.2306 121.365 93.0103 121.232 92.7559C121.167 92.6317 121.115 92.5001 121.066 92.3616C121.032 92.2844 121.067 92.1935 121.145 92.1591C121.222 92.125 121.313 92.1605 121.347 92.2377C121.496 92.5485 121.685 92.8161 121.872 93.0455L121.934 93.1203C122.105 92.8975 122.251 92.672 122.318 92.5001C122.354 92.4065 122.461 92.3599 122.554 92.3957C122.649 92.433 122.695 92.5388 122.659 92.6324Z" fill="#E7EAEE"/>
<path fill-rule="evenodd" clip-rule="evenodd" d="M118.222 0.00840192C118.499 -0.0399701 118.762 0.145515 118.811 0.422523C118.859 0.699183 118.674 0.962962 118.397 1.01133C117.079 1.24067 115.494 2.02785 114.124 3.2963C112.346 4.94269 111.034 7.26698 110.387 10.3008C109.865 12.7449 110.344 15.9632 111.708 18.648C113.26 21.7024 115.754 23.7792 118.955 24.3639C122.24 24.9642 125.02 24.5915 128.125 23.4876L128.411 23.3839C128.501 23.3495 128.663 23.2872 128.866 23.2085H128.867C129.614 22.92 130.921 22.4161 131.296 22.3027C132.3 21.9989 132.984 22.0243 133.481 22.5536C133.673 22.7586 133.663 23.0805 133.458 23.2729C133.266 23.4535 132.971 23.4556 132.776 23.2865L132.739 23.2503C132.592 23.094 132.289 23.0759 131.68 23.2506L131.591 23.2771C131.26 23.3769 130.05 23.8436 129.296 24.1345H129.296C129.003 24.2473 128.779 24.3336 128.702 24.3618C125.348 25.5861 122.339 26.0169 118.772 25.3654C115.237 24.7195 112.488 22.4311 110.8 19.1091C109.334 16.2217 108.819 12.7671 109.391 10.0882C110.082 6.85043 111.499 4.33926 113.433 2.54915C114.946 1.1481 116.711 0.27149 118.222 0.00840192ZM121.664 2.46737C121.94 2.41343 122.207 2.59335 122.262 2.86896C122.316 3.14493 122.136 3.41254 121.86 3.46648C117.734 4.27453 114.417 7.42532 113.454 11.5933C113.129 13.0041 113.227 14.1511 113.547 14.5886L113.589 14.6435L113.593 14.6512L113.599 14.6467C113.713 14.5433 113.847 14.2795 113.95 13.8706L113.972 13.7805C114.962 9.49384 118.23 6.17565 122.404 5.06136C122.676 4.98897 122.955 5.15045 123.027 5.42189C123.1 5.69333 122.939 5.97242 122.667 6.04481C118.906 7.04879 115.951 10.0099 115.003 13.847L114.964 14.0095C114.615 15.5215 113.613 16.2433 112.801 15.2863C112.207 14.5861 112.062 13.1009 112.462 11.3643C113.516 6.80171 117.148 3.35198 121.664 2.46737ZM127.786 8.05451C127.766 7.77402 127.523 7.56278 127.242 7.58297C122.288 7.93619 117.943 11.1541 116.215 15.9033C115.559 17.7056 115.52 19.3081 116.057 20.1252C116.777 21.2218 117.91 20.5999 118.475 19.0475L118.535 18.8884C120.063 14.869 123.645 12.0617 127.839 11.4764C128.118 11.4378 128.312 11.1806 128.273 10.9018C128.234 10.6234 127.977 10.4293 127.698 10.4682C123.08 11.1127 119.143 14.2374 117.519 18.6995L117.483 18.7948C117.302 19.2591 117.104 19.5392 116.955 19.6213L116.948 19.6259C116.947 19.6266 116.946 19.6272 116.945 19.6279C116.944 19.629 116.944 19.6297 116.943 19.6297C116.942 19.6297 116.942 19.6283 116.94 19.6248C116.937 19.6172 116.93 19.6001 116.908 19.5663L116.881 19.5222C116.585 18.9984 116.63 17.7383 117.172 16.2516C118.762 11.8829 122.758 8.92346 127.315 8.59843C127.595 8.57825 127.806 8.33465 127.786 8.05451ZM130.003 13.0027C130.283 12.9825 130.527 13.1938 130.547 13.4743C130.567 13.7547 130.356 13.998 130.076 14.0182C126.88 14.2461 124.079 16.3212 122.964 19.384C122.633 20.2919 122.572 21.0683 122.69 21.4612L122.705 21.5051L122.727 21.4727C122.784 21.3864 122.848 21.2625 122.911 21.1021L122.938 21.0311C124.115 17.7957 126.97 15.5302 130.319 15.0629C130.597 15.0239 130.854 15.2181 130.893 15.4965C130.932 15.7749 130.738 16.0321 130.46 16.071C127.53 16.4799 125.027 18.435 123.948 21.236L123.894 21.3791C123.458 22.579 122.513 23.0972 121.91 22.1784C121.496 21.5489 121.525 20.3608 122.007 19.0356C123.261 15.5922 126.411 13.2588 130.003 13.0027ZM132.686 17.1039C132.666 16.8234 132.422 16.6125 132.142 16.6324C129.736 16.8039 127.627 18.3668 126.787 20.673C126.456 21.582 126.436 22.4095 126.742 22.8755C127.244 23.6393 128.024 23.2113 128.349 22.3187L128.393 22.2014C129.077 20.4551 130.644 19.2375 132.476 18.9817C132.754 18.9427 132.948 18.6856 132.91 18.4072C132.871 18.1288 132.614 17.9346 132.335 17.9736L132.206 17.993C130.234 18.3104 128.532 19.5625 127.65 21.3641L127.619 21.4281L127.638 21.3551C127.667 21.2489 127.701 21.1369 127.744 21.021C128.444 19.0955 130.206 17.7912 132.214 17.6478C132.495 17.628 132.706 17.3844 132.686 17.1039Z" fill="#00160A"/>
<path fill-rule="evenodd" clip-rule="evenodd" d="M130.002 13.0027C130.283 12.9826 130.526 13.1938 130.546 13.4743C130.566 13.7548 130.355 13.998 130.075 14.0182C126.88 14.2461 124.078 16.3213 122.963 19.384C122.633 20.2919 122.571 21.0683 122.69 21.4612L122.704 21.5051L122.727 21.4727C122.783 21.3864 122.847 21.2625 122.91 21.1021L122.937 21.0311C124.114 17.7957 126.969 15.5303 130.318 15.0629C130.596 15.0239 130.854 15.2181 130.892 15.4965C130.931 15.7749 130.737 16.0321 130.459 16.0711C127.529 16.48 125.026 18.435 123.947 21.2361L123.894 21.3791C123.457 22.579 122.513 23.0972 121.909 22.1784C121.495 21.5489 121.524 20.3608 122.007 19.0357C123.26 15.5922 126.41 13.2589 130.002 13.0027Z" fill="#00160A"/>
<path d="M98.3022 79.2756C108.973 74.2842 117.896 71.6474 123.45 71.1633C125.151 71.0151 125.923 71.953 125.492 73.4786C125.172 74.611 124.198 76.1655 122.705 78.0064C120.102 81.215 116.67 83.961 113.253 86.515C118.72 81.4683 120.115 79.3574 121.801 77.2784L122.066 76.9478C123.316 75.3668 124.125 74.0462 124.373 73.1647L124.409 73.0311C124.564 72.3949 124.384 72.2442 123.552 72.317C118.123 72.7899 109.234 75.4319 98.6022 80.4167C87.9527 85.4094 87.6482 84.2589 98.3022 79.2756Z" fill="white"/>
<path d="M49.4962 63.1282L49.5742 63.3141C50.1146 64.5958 50.6767 65.8653 51.3142 67.2496L51.562 67.7869C51.4809 67.8416 51.374 67.8993 51.2564 67.9508C51.0876 68.0246 50.9164 68.0761 50.7877 68.0935L50.7466 68.0977L50.6847 68.0236C50.2027 67.4302 49.6434 66.4221 49.2394 65.4198C49.024 64.886 48.8709 64.3964 48.8016 64.0202C48.7734 63.8667 48.7606 63.7379 48.7616 63.6405L48.7644 63.5761C48.7654 63.5605 48.7654 63.5525 48.7616 63.5511L48.7769 63.541C48.8629 63.4815 49.0828 63.3527 49.4092 63.1752L49.4962 63.1282Z" fill="white"/>
<path fill-rule="evenodd" clip-rule="evenodd" d="M62.9861 58.4846C63.3202 58.0757 63.7531 58.1366 64.3019 58.4693L64.4425 58.5584L64.8371 58.8198C64.9474 58.8904 64.9951 58.9148 65.0595 58.9405C65.2088 58.9997 65.2815 59.1691 65.222 59.3181C65.1625 59.4674 64.9934 59.5405 64.8441 59.4809L64.7912 59.459C64.6902 59.4159 64.614 59.371 64.4098 59.2353L64.1268 59.0467C64.0802 59.0164 64.0398 58.991 64.0002 58.9666C63.672 58.7679 63.5231 58.7467 63.4364 58.8525C63.3821 58.9193 63.3953 59.0613 63.5036 59.3529L63.6222 59.6584C63.8582 60.2848 63.8596 60.5646 63.4392 60.8037C63.0776 61.0094 62.8921 60.9133 62.3726 60.4042L62.2462 60.2793C61.9136 59.9469 61.7392 59.8314 61.6268 59.8551C61.5896 59.8631 61.5461 59.8895 61.4928 59.9462C61.4305 60.0127 61.4128 60.2253 61.4511 60.6022L61.5099 61.0946C61.5781 61.6963 61.5506 61.8522 61.3021 62.0186C60.96 62.2475 60.5049 61.9886 59.661 61.231C59.5416 61.1235 59.5315 60.9398 59.639 60.8201C59.7462 60.7007 59.9303 60.6909 60.0497 60.7981C60.4102 61.1221 60.6827 61.333 60.873 61.4412L60.9155 61.4646L60.9513 61.4823L60.952 61.4458L60.9499 61.3588C60.9461 61.2871 60.9371 61.2008 60.9193 61.0543L60.8824 60.7522C60.8114 60.1394 60.8337 59.7987 61.0686 59.5481C61.1991 59.4093 61.3456 59.3202 61.5064 59.2861C61.8802 59.2071 62.1457 59.3668 62.5862 59.7976L62.809 60.0165C63.0487 60.2472 63.1378 60.3061 63.1517 60.2981C63.2064 60.2671 63.198 60.1707 63.0505 59.7924L62.9861 59.6285C62.7804 59.1002 62.7414 58.7839 62.9861 58.4846Z" fill="#00160A"/>
<path fill-rule="evenodd" clip-rule="evenodd" d="M94.7401 11.1413L94.4638 11.166C94.2139 11.19 94.0309 11.4124 94.0552 11.6622C94.0699 11.8133 94.1569 11.9396 94.2783 12.0109L94.2303 12.045C94.0253 12.1898 93.9766 12.4734 94.1217 12.6784C94.2665 12.8834 94.5501 12.9321 94.7551 12.7873L95.2221 12.4564C95.2085 12.5635 95.1967 12.6739 95.1869 12.7884L95.1413 13.3594C95.1205 13.6096 95.3066 13.8292 95.5565 13.8498C95.8067 13.8706 96.0263 13.6848 96.0472 13.4346L96.1032 12.7511C96.1178 12.605 96.1359 12.4678 96.1578 12.338C96.3176 12.6408 96.3492 12.8743 96.3155 13.0946L96.3023 13.1698L96.2967 13.2161C96.2796 13.4457 96.4394 13.6552 96.6712 13.6963C96.9182 13.7398 97.1538 13.5748 97.1977 13.3278L97.213 13.2397C97.2613 12.9328 97.2391 12.6241 97.1148 12.2813C97.1799 12.328 97.236 12.3802 97.2857 12.4369L97.3348 12.495L97.3664 12.5291C97.5314 12.6899 97.7948 12.7024 97.9751 12.551C98.1672 12.3899 98.1923 12.1031 98.0311 11.9107L97.9734 11.8425C97.9532 11.8188 97.9323 11.7962 97.9107 11.7736C98.1481 11.7875 98.3586 11.6146 98.3878 11.3755C98.4185 11.1263 98.2413 10.8994 97.9922 10.8688C97.5638 10.8162 97.189 10.8044 96.8444 10.8354C96.968 10.6899 97.1114 10.542 97.2781 10.3865C97.4618 10.2152 97.4719 9.9278 97.3007 9.74405C97.1295 9.56066 96.842 9.55056 96.6583 9.72143C96.3503 10.0085 96.1049 10.2817 95.9097 10.5584C95.8342 10.4783 95.7549 10.3962 95.6717 10.312L95.4751 10.1161C95.2959 9.94032 95.0084 9.94276 94.8323 10.122C94.6566 10.3012 94.6594 10.589 94.8382 10.7647C94.9628 10.8869 95.0773 11.0024 95.1831 11.1117C95.0425 11.119 94.8946 11.1287 94.7401 11.1413Z" fill="#00160A"/>
<path fill-rule="evenodd" clip-rule="evenodd" d="M77.2252 14.2904C77.1163 14.1784 76.9395 14.1815 76.8309 14.2974C76.722 14.4129 76.722 14.5974 76.8313 14.7094C76.9346 14.8152 77.0272 14.9137 77.1097 15.0052C76.935 15.0793 76.7596 15.175 76.5717 15.2937L76.2866 15.4764C76.1617 15.5561 76.1342 15.7158 76.2257 15.8328C76.3173 15.9497 76.4927 15.98 76.6179 15.9003L76.9597 15.6821C77.1382 15.5728 77.299 15.49 77.4608 15.4322C77.7065 15.7736 77.7576 15.9928 77.7263 16.1957L77.718 16.2441L77.7141 16.2737C77.7027 16.4209 77.7997 16.5545 77.9417 16.5796C78.0931 16.6064 78.2386 16.4995 78.2668 16.3408L78.2765 16.2841C78.3231 15.9897 78.2734 15.6929 78.0621 15.3264C78.2055 15.3243 78.3614 15.3348 78.5386 15.3574C78.6924 15.3772 78.8309 15.2794 78.8472 15.1392C78.8639 14.9993 78.7522 14.8695 78.5981 14.8497C78.2601 14.8065 77.9769 14.8016 77.7176 14.8368C77.6111 14.7056 77.4876 14.5657 77.3449 14.4147L77.2252 14.2904Z" fill="#E7EAEE"/>
<path fill-rule="evenodd" clip-rule="evenodd" d="M18.6562 90.0571L18.9694 90.7531L19.6831 90.958C19.7217 90.9692 19.7444 91.0092 19.7332 91.0478C19.7297 91.06 19.7231 91.0708 19.7144 91.0795L19.1722 91.6192L19.2025 92.3967C19.2039 92.4367 19.1729 92.4704 19.1326 92.4718C19.119 92.4725 19.1058 92.4694 19.0939 92.4624L18.4797 92.1127C18.4606 92.1019 18.4376 92.1002 18.4171 92.1085L17.7601 92.3692C17.7228 92.3841 17.6807 92.3657 17.6658 92.3285C17.6609 92.3159 17.6595 92.302 17.6619 92.2888L17.8001 91.5235L17.3379 90.9131C17.3139 90.8811 17.3202 90.8355 17.3522 90.8115C17.362 90.8039 17.3734 90.799 17.386 90.7973L18.1213 90.6939L18.5284 90.048C18.5497 90.0143 18.5946 90.0042 18.6287 90.0254C18.6409 90.033 18.6502 90.0442 18.6562 90.0571Z" fill="#00160A"/>
<path fill-rule="evenodd" clip-rule="evenodd" d="M22.8321 51.4289L23.1453 52.1249L23.8591 52.3299C23.8977 52.341 23.9203 52.381 23.9092 52.4196C23.9057 52.4318 23.8991 52.4426 23.8904 52.4513L23.3482 52.9911L23.3785 53.7685C23.3799 53.8085 23.3489 53.8423 23.3085 53.8437C23.295 53.8444 23.2817 53.8412 23.2699 53.8343L22.6557 53.4845C22.6366 53.4737 22.6136 53.472 22.5931 53.4803L21.936 53.741C21.8988 53.756 21.8567 53.7375 21.8417 53.7003C21.8369 53.6878 21.8355 53.6738 21.8379 53.6606L21.9761 52.8954L21.5139 52.285C21.4899 52.2529 21.4962 52.2074 21.5282 52.1834C21.5379 52.1757 21.5494 52.1708 21.5619 52.1691L22.2973 52.0657L22.7044 51.4198C22.7256 51.3861 22.7705 51.376 22.8046 51.3972C22.8168 51.4049 22.8262 51.416 22.8321 51.4289Z" fill="#00160A"/>
<path d="M32.2922 112.929C32.5254 112.76 32.8518 112.812 33.0213 113.045C33.1908 113.278 25.8055 119.293 22.9408 122.05L22.6077 122.373C20.9714 123.974 19.7649 125.36 19.0849 126.456C18.3642 127.618 18.3183 128.248 18.7832 128.506C20.5486 129.485 23.0862 129.961 26.7211 129.359L27.0945 129.295C28.4781 129.053 38.8854 126.783 38.7208 126.844L38.6568 126.863C38.3286 126.95 34.091 128.415 32.6284 128.788L32.4516 128.832C30.2154 129.395 28.4656 129.78 26.8916 130.041C23.0452 130.678 20.2974 130.539 18.2772 129.42C17.1118 128.774 17.2047 127.507 18.1979 125.906C18.9791 124.647 20.3534 123.091 22.2169 121.298C25.1199 118.504 29.2034 115.172 32.2922 112.929Z" fill="white"/>
<path fill-rule="evenodd" clip-rule="evenodd" d="M86.6686 40.57C86.7959 40.4851 86.9668 40.5213 87.0503 40.6507L88.9347 43.5704C89.0183 43.6999 88.9828 43.8735 88.8554 43.9581C88.728 44.043 88.5572 44.0068 88.4736 43.8774L86.5892 40.9577C86.5057 40.8282 86.5412 40.6545 86.6686 40.57Z" fill="#00160A"/>
<path fill-rule="evenodd" clip-rule="evenodd" d="M86.7607 38.4128C86.9065 38.3268 87.0996 38.3699 87.1915 38.5091L88.4881 40.4733C88.5804 40.6128 88.5365 40.7952 88.3904 40.8811C88.2445 40.9671 88.0517 40.9239 87.9599 40.7847L86.6629 38.8206C86.571 38.6814 86.6148 38.4987 86.7607 38.4128Z" fill="#00160A"/>
</svg>
