<svg width="166" height="136" viewBox="0 0 166 136" fill="none" xmlns="http://www.w3.org/2000/svg">
<path fill-rule="evenodd" clip-rule="evenodd" d="M72.3114 131.695C64.9174 135.4 56.2488 135.701 48.0462 134.646C32.1662 132.604 16.1297 124.905 8.23389 110.977C4.82803 104.969 3.10787 98.1567 1.90945 91.3552C0.308942 82.272 -0.337615 72.507 3.68433 64.2068C7.07492 57.2095 13.3671 52.1177 19.6361 47.5179C26.2063 42.697 33.3237 38.0098 41.4157 37.0464C64.7583 36.5841 62.3937 45.3529 86.7715 31.4067C93.8582 27.3523 114.928 34.3117 122.047 36.5841C129.166 38.8567 143.214 45.8677 152.741 54.1961C156.723 57.6774 160.396 61.6615 162.634 66.4541C165.985 73.6298 165.822 81.9888 164.259 89.7524C162.682 97.5835 159.258 105.728 152.304 109.658C149.162 111.434 145.539 112.195 141.942 112.487C126.919 113.704 110.938 107.29 97.1911 113.468C87.7797 117.698 81.5363 127.073 72.3114 131.695Z" fill="#C0FF99"/>
<path fill-rule="evenodd" clip-rule="evenodd" d="M15.9824 67.2372C18.8053 64.4566 21.4585 61.5896 23.244 59.091C25.7018 55.6518 29.3055 52.3815 33.5754 51.7504C38.5552 51.0147 43.1284 54.4479 46.7483 57.9457C51.7491 62.7783 56.2369 68.1411 60.1124 73.9153C58.5579 74.1177 55.2078 76.4365 50.756 76.3628C48.1355 76.3195 45.0048 73.9842 41.9785 73.8282C39.8763 73.72 37.5814 75.9202 35.4648 75.7525C31.7638 75.4591 28.3023 72.7343 25.1805 72.2413C23.3205 71.9477 20.8105 73.7963 19.3809 73.4254C15.4517 72.4062 14.2874 68.9069 15.9824 67.2372Z" fill="white"/>
<path fill-rule="evenodd" clip-rule="evenodd" d="M100.631 110.497C112.832 106.475 126.052 111.137 138.897 110.965C144.588 110.889 150.671 109.633 154.589 105.504C146.008 100.452 139.495 92.4173 134.751 83.6624C130.006 74.9074 126.887 65.3826 123.793 55.9176C119.723 53.5965 114.484 57.5217 110.016 56.1098C107.732 55.3886 105.006 53.4291 103.367 55.175C102.378 56.2292 100.536 55.609 99.5742 54.5303C98.6122 53.4516 98.0764 52.0178 96.9917 51.0624C95.9069 50.1074 93.8481 49.987 93.296 51.3229C92.3405 53.6353 91.3332 56.0237 89.5011 57.7276C87.669 59.4315 84.7643 60.2541 82.6183 58.9674C80.942 57.9625 80.1508 56.0067 79.1745 54.3137C78.1981 52.6204 77.8174 51.0984 75.8758 51.3229C69.3175 65.1407 64.4214 78.7241 56.3532 91.7181C52.8863 97.3021 33.4889 118.587 22.2178 115.844C10.9468 113.101 11.783 110.965 7.97681 107.592C11.9417 115.658 18.9458 122.004 26.943 126.107C34.9402 130.209 43.8976 132.181 52.8572 132.894C56.3927 133.175 59.9787 133.263 63.4587 132.579C77.7206 129.777 86.8277 115.049 100.631 110.497Z" fill="white"/>
<path fill-rule="evenodd" clip-rule="evenodd" d="M88.4007 56.6026C89.6506 54.9878 90.4314 53.0455 91.7191 51.4609C93.0068 49.8763 95.0978 48.6479 97.0457 49.26C98.8585 49.8295 99.8559 51.7209 100.664 53.4405C101.07 54.3038 102.303 54.3707 103.193 54.0244C104.081 53.6784 104.881 53.0524 105.829 52.9488C107.791 52.7347 109.269 54.7674 111.187 55.2353C114.041 55.932 116.909 53.0199 119.729 53.8418C120.922 54.1893 121.955 55.1872 123.195 55.1018C120.81 49.3849 119.014 43.4313 116.51 37.7652C114.006 32.0992 110.703 26.6307 105.895 22.724C105.401 22.3225 104.86 21.9248 104.228 21.8442C103.597 21.7637 102.864 22.1224 102.754 22.7496C102.425 24.6144 102.096 26.4792 101.766 28.344C101.603 29.2671 101.173 30.4264 100.236 30.4087C99.6112 30.397 99.1316 29.7847 99.0457 29.1661C98.9596 28.5474 99.1671 27.9295 99.3713 27.3393C100.011 25.4899 100.652 23.6404 101.292 21.791C96.8997 23.3759 93.0926 26.3176 89.9369 29.7589C86.7811 33.2004 84.2288 37.1446 81.7826 41.1219C79.688 44.5272 77.6591 47.9728 75.697 51.4561C78.3281 51.0825 80.6198 53.2429 82.1084 55.4443C82.9991 56.7614 84.0598 58.3308 85.6497 58.325C86.771 58.3209 87.7146 57.4893 88.4007 56.6026Z" fill="white"/>
<path fill-rule="evenodd" clip-rule="evenodd" d="M105.418 16.8023C105.127 16.7088 104.821 16.6024 104.623 16.3696C104.337 16.0345 104.356 15.5445 104.39 15.1057C104.73 10.7687 105.07 6.43136 105.409 2.09429C105.449 1.59168 105.942 1.22131 106.44 1.14708C106.939 1.07285 107.441 1.22384 107.922 1.37305C111.028 2.33572 114.134 3.29839 117.24 4.26105C117.998 4.49589 118.038 5.54824 117.878 6.32572C117.719 7.10294 117.599 8.10108 118.278 8.51249C122.807 11.2586 127.621 13.5366 132.616 15.2985C132.939 15.4125 132.963 15.9035 132.737 16.1611C132.512 16.4188 132.152 16.5019 131.817 16.5733C126.745 17.6555 121.782 19.2475 117.027 21.3172C116.362 21.6068 115.493 21.8715 114.991 21.3479C114.633 20.9752 114.668 20.3928 114.638 19.8773C114.608 19.362 114.38 18.7446 113.868 18.6795C111.002 18.3152 108.169 17.6859 105.418 16.8023ZM116.059 8.00532C116.754 6.90509 116.258 5.24171 115.075 4.70084C112.268 3.41821 109.322 2.43959 106.305 1.78801C106.807 2.56169 106.78 3.55096 106.736 4.47183C106.566 8.00735 106.391 11.5755 105.468 14.9925C105.388 15.2881 105.768 15.4802 106.067 15.5471C108.742 16.1452 111.438 16.6539 114.147 17.0716C113.924 14.4602 113.701 11.8489 113.478 9.23753C113.453 8.94746 113.43 8.64422 113.541 8.37468C113.72 7.93818 114.217 7.70081 114.689 7.68738C115.16 7.67396 115.617 7.8409 116.059 8.00532ZM115.477 10.0637C115.69 13.1275 115.903 16.1915 116.116 19.2553C116.135 19.5241 116.167 19.8205 116.365 20.0024C120.684 18.2096 125.158 16.7909 129.721 15.768C124.777 14.3483 120.606 10.4644 115.477 10.0637Z" fill="#FFB61D"/>
<path fill-rule="evenodd" clip-rule="evenodd" d="M72.3114 131.695C64.9174 135.4 56.2488 135.701 48.0461 134.646C32.1662 132.604 16.1299 124.906 8.23394 110.977C4.82808 104.969 3.10792 98.1568 1.9095 91.3553C1.252 87.624 -0.0248775 82.0354 2.31321 79.4991C2.83561 78.9324 17.5116 67.1134 23.2443 59.0913C25.7021 55.6518 29.3058 52.3815 33.5757 51.7507C38.5555 51.0148 43.1287 54.4479 46.7485 57.946C51.7493 62.7783 56.2371 68.1411 60.1126 73.9153C55.8419 72.101 52.7683 68.3304 49.9314 64.6583C47.0946 60.9865 44.1633 57.1444 40.0101 55.075C35.857 53.0057 30.0896 53.3503 27.3924 57.1259C20.9633 66.1248 12.8308 73.9024 3.55396 79.9236C2.85623 80.3766 2.79315 81.3557 2.8062 82.1874C2.95701 91.788 4.03038 102.721 11.7108 108.484C18.1257 113.297 27.438 112.669 34.4649 108.804C41.4919 104.939 46.631 98.4013 51.0428 91.7042C63.9848 72.0592 72.3887 49.6042 86.2992 30.6326C89.497 26.2712 93.2646 21.9098 98.4166 20.2657C101.854 19.1688 102.818 14.782 102.755 11.1741C102.692 7.5661 102.35 3.46387 104.856 0.866699C104.327 6.86664 103.799 12.8666 103.272 18.8665C110.966 22.6868 115.461 30.8206 118.759 38.7532C123.657 50.5324 126.982 62.9311 132.139 74.5996C137.295 86.2681 144.615 97.4799 155.435 104.238C160.443 97.718 163.299 87.2799 163.299 81.3147C160.443 78.202 156.386 73.3322 151.639 71.1396C145.981 68.5259 139.774 73.1082 135.228 77.3731C137.741 73.549 140.756 69.5241 145.202 68.4411C148.79 67.5668 152.63 68.8707 155.608 71.0565C158.585 73.242 160.855 76.2336 163.081 79.1809C165.331 79.9237 165.822 81.9891 164.259 89.7527C162.682 97.5835 159.258 105.728 152.304 109.658C149.162 111.434 145.539 112.195 141.942 112.487C126.919 113.704 110.938 107.29 97.191 113.468C87.7797 117.698 81.5365 127.073 72.3114 131.695ZM100.632 110.498C112.832 106.475 126.052 111.137 138.898 110.965C144.588 110.889 150.672 109.633 154.589 105.504C146.009 100.452 139.495 92.4175 134.751 83.6623C130.007 74.9074 126.887 65.3826 123.794 55.9175C119.723 53.5965 114.484 57.5216 110.016 56.1101C107.733 55.3886 105.006 53.429 103.368 55.1753C102.379 56.2291 100.537 55.609 99.5746 54.5303C98.6124 53.4516 98.0766 52.0177 96.9919 51.0627C95.9071 50.1073 93.8483 49.987 93.2962 51.3228C92.3407 53.6353 91.3334 56.0237 89.5013 57.7276C87.6692 59.4315 84.7645 60.2541 82.6188 58.9674C80.9425 57.9624 80.1513 56.0067 79.1749 54.3137C78.1986 52.6207 76.5813 50.9279 74.6398 51.1523C68.0815 64.9699 60.7452 78.4183 52.6773 91.4126C49.2104 96.9963 45.5409 102.575 40.5756 106.881C35.61 111.187 29.1257 114.132 22.5806 113.533C17.2988 113.05 12.5011 110.36 7.97716 107.592C11.942 115.658 18.946 122.005 26.9435 126.107C34.9407 130.209 43.898 132.181 52.8577 132.894C56.3932 133.175 59.9789 133.263 63.4592 132.579C77.7211 129.777 86.8279 115.049 100.632 110.498ZM88.1475 55.5895C89.3974 53.9747 90.1782 52.0322 91.4659 50.4476C92.7536 48.863 94.8446 47.6346 96.7925 48.2466C98.6054 48.8161 99.6027 50.7075 100.411 52.4271C100.817 53.2907 102.05 53.3574 102.939 53.0113C103.828 52.665 104.628 52.039 105.576 51.9356C107.538 51.7213 109.016 53.7541 110.934 54.2222C113.787 54.9186 116.656 52.0066 119.476 52.8284C120.669 53.1762 121.702 54.1738 122.942 54.0887C120.557 48.3715 118.774 42.7422 116.27 37.0761C113.766 31.4101 108.326 21.3897 103.975 20.8309C99.5746 20.2657 92.8395 25.3042 89.6837 28.7458C86.5279 32.1871 83.9756 36.1312 81.5294 40.1085C79.4349 43.5138 77.4059 46.9594 75.4439 50.4428C78.075 50.0693 80.3666 52.2298 81.8552 54.4312C82.7459 55.7483 83.8066 57.3175 85.3966 57.3116C86.5178 57.3076 87.4615 56.4759 88.1475 55.5895Z" fill="#00160A"/>
<path fill-rule="evenodd" clip-rule="evenodd" d="M68.7528 9.64081C65.9887 9.92151 63.7338 12.3482 62.5951 15.6327C62.2989 16.4864 61.3271 16.8806 59.6219 17.045L59.5143 17.0549C55.7388 17.3915 53.2326 18.3638 52.0242 20.5868L51.9735 20.6821C51.8753 20.8711 51.7912 21.0598 51.668 21.358L51.5885 21.5523C51.3032 22.2533 51.1573 22.5497 50.9133 22.8582C50.1533 23.8191 49.0096 24.1148 46.7207 24.1837L46.4666 24.1902C40.9829 24.3124 37.109 25.1456 33.9712 27.3372C33.0734 27.9642 32.5388 28.5863 32.4193 29.3838C32.2819 30.2981 32.8132 31.2446 33.6611 31.7644C34.3395 32.1801 35.1532 32.3443 36.1696 32.3473C37.4061 32.3511 38.6424 32.1358 39.8049 31.7145L39.902 31.679C40.077 31.6139 40.2429 31.5478 40.4897 31.4457L41.0123 31.2276C42.0844 30.784 42.6045 30.6267 43.2569 30.5925C44.2633 30.5398 45.0575 30.8053 46.7488 31.6317L47.1045 31.8062C47.4726 31.9863 47.7383 32.112 47.9988 32.2262L48.0697 32.2569C50.907 33.4825 53.8074 33.6875 58.5187 33.3282L59.4484 33.2532L61.507 33.079C62.0474 33.0351 62.4345 33.007 62.8801 32.9786L63.3102 32.9533C65.1454 32.8535 67.1041 32.852 70.303 32.9158L72.5029 32.9617C76.9125 33.0485 78.9001 33.0252 81.0195 32.8069C83.4816 32.5535 85.085 30.8344 85.7424 28.2877C86.2752 26.2235 86.0813 23.8151 85.3391 22.6708C83.8568 20.3857 81.6445 19.0093 79.6087 19.6434C78.9338 19.8537 78.0849 19.3582 77.6519 18.5452C77.4166 18.1037 77.2973 17.7054 77.1009 16.8129L77.0062 16.381C76.9515 16.1368 76.9112 15.9736 76.8605 15.79C76.1699 13.2908 74.2839 11.157 71.8886 10.1645C70.8375 9.72872 69.7682 9.53796 68.7528 9.64081ZM71.5975 10.8664C73.7397 11.7541 75.4411 13.6531 76.0949 15.8771L76.1279 15.9924C76.175 16.1629 76.213 16.3174 76.2657 16.5525L76.383 17.0858C76.5803 17.9714 76.7138 18.4008 76.9811 18.9027C77.5579 19.9852 78.7159 20.6758 79.7716 20.3875L79.8347 20.3692C81.4679 19.8603 83.3828 21.0517 84.7014 23.0842C85.314 24.0284 85.4903 26.2227 85.0065 28.0977C84.4218 30.3627 83.0497 31.8341 80.9417 32.0509L80.7054 32.0745C78.7643 32.2612 76.8334 32.2837 72.8513 32.2082L69.9438 32.1485C66.9451 32.092 65.0534 32.0973 63.2677 32.1946L62.5674 32.2374C62.0674 32.2711 61.5906 32.3083 60.8118 32.3742L58.6651 32.5546C54.0152 32.9211 51.188 32.7456 48.49 31.6101L48.3712 31.5592C48.1457 31.4619 47.9202 31.3573 47.6248 31.2144L46.9576 30.8881C45.2334 30.0519 44.3687 29.7732 43.2171 29.8335C42.43 29.8748 41.8412 30.0585 40.6199 30.5677L40.0798 30.7926C39.8662 30.88 39.717 30.938 39.546 30.9998C38.4673 31.391 37.3192 31.5909 36.1719 31.5873C35.2824 31.5848 34.5967 31.4465 34.0581 31.1164C33.4536 30.7458 33.0825 30.0846 33.1709 29.4968C33.2515 28.959 33.6644 28.4784 34.4061 27.9604C37.3532 25.9023 41.0369 25.0909 46.2705 24.9553L46.4836 24.95C49.1681 24.8902 50.527 24.5715 51.5094 23.3297C51.7876 22.978 51.9515 22.6629 52.2173 22.022L52.423 21.5221C52.5271 21.2749 52.6006 21.1176 52.6918 20.9499C53.7109 19.0752 55.9071 18.1804 59.2769 17.8407L59.5819 17.8118C61.601 17.6317 62.8294 17.1635 63.2884 15.9498L63.313 15.8817C64.3651 12.8475 66.4141 10.6422 68.8296 10.397C69.6724 10.3114 70.5743 10.4621 71.4749 10.8168L71.5975 10.8664Z" fill="#00160A"/>
<path fill-rule="evenodd" clip-rule="evenodd" d="M151.123 25.3694L151.029 25.4631C150.957 25.5361 150.887 25.6118 150.799 25.7083L150.452 26.0997C150.12 26.4711 149.941 26.6482 149.706 26.825C149.196 27.2106 148.584 27.3297 148.177 27.1019C148.013 27.0105 147.891 26.8904 147.656 26.6013L147.481 26.3855C147.39 26.275 147.325 26.2023 147.245 26.122C146.196 25.0651 144.365 25.0139 142.97 25.8553C141.879 26.5139 141.095 27.5224 140.236 29.1271C139.885 29.7827 139.114 30.2359 138.196 30.3745C137.75 30.4419 137.282 30.4469 136.682 30.4023L136.389 30.378L135.467 30.2845C130.617 29.806 125.656 30.4915 121.117 32.2671C120.401 32.5473 120.003 32.7984 119.75 33.266C119.385 33.9401 119.755 34.9185 120.533 34.9618C133.838 35.699 147.198 35.447 160.466 34.2089L161.308 34.1299L161.922 34.0878C161.979 34.0835 162.027 34.0795 162.085 34.0744L162.243 34.0587C163.453 33.9244 164.118 33.5229 164.118 32.5164C164.118 31.5444 163.649 31.2784 162.466 31.1578L162.229 31.1329C161.771 31.083 161.562 31.0455 161.279 30.9579C160.276 30.6471 159.081 29.9988 158.82 29.675C158.434 29.1962 158.27 28.7455 158.036 27.698L157.962 27.3664C157.715 26.2874 157.519 25.7727 157.054 25.1951C155.699 23.5099 152.806 23.7161 151.123 25.3694ZM156.462 25.6716C156.847 26.1501 157.012 26.6008 157.246 27.6468L157.32 27.9784C157.567 29.0594 157.763 29.5742 158.228 30.1518C158.605 30.6189 159.92 31.3321 161.054 31.6837L161.159 31.7151C161.43 31.7931 161.658 31.8332 162.055 31.8783L162.58 31.9347C163.249 32.0138 163.358 32.109 163.358 32.5164C163.358 33.0122 162.999 33.2202 162.095 33.3101L161.863 33.3301L161.285 33.3694C161.257 33.3714 161.231 33.3737 161.206 33.3757L161.131 33.3825C147.659 34.6773 134.089 34.9517 120.575 34.2028C120.421 34.1945 120.294 33.8578 120.418 33.6275C120.558 33.3684 120.837 33.1928 121.394 32.9749C125.745 31.2728 130.494 30.5977 135.147 31.0177L135.717 31.0739L136.187 31.1223C136.297 31.1329 136.388 31.1411 136.489 31.1494C137.205 31.2092 137.764 31.2084 138.31 31.1261C139.446 30.9543 140.429 30.3765 140.906 29.4858C141.706 27.9916 142.417 27.0768 143.363 26.5061C144.479 25.8324 145.927 25.873 146.706 26.6573L146.751 26.7044C146.789 26.7442 146.826 26.787 146.873 26.8425L147.019 27.0216C147.345 27.4267 147.518 27.6043 147.805 27.7651C148.513 28.1613 149.435 27.9817 150.164 27.4317C150.432 27.2298 150.628 27.0396 150.953 26.6791L151.358 26.2236C151.476 26.0934 151.559 26.006 151.655 25.9115C153.046 24.5458 155.421 24.3765 156.462 25.6716Z" fill="#00160A"/>
<path fill-rule="evenodd" clip-rule="evenodd" d="M102.754 11.1741C102.691 7.5661 102.35 3.46387 104.855 0.866699C104.327 6.86665 103.799 12.8666 103.271 18.8665C104.128 19.2921 102.85 20.0043 102.075 20.0187C99.2984 20.0699 102.818 14.782 102.754 11.1741Z" fill="#FFB61D"/>
</svg>
