<svg width="18" height="18" viewBox="0 0 18 18" fill="none" xmlns="http://www.w3.org/2000/svg">
<path d="M9 16.5C4.85775 16.5 1.5 13.1423 1.5 9C1.5 4.85775 4.85775 1.5 9 1.5C13.1423 1.5 16.5 4.85775 16.5 9C16.5 13.1423 13.1423 16.5 9 16.5ZM5.25975 13.692C6.32141 14.5408 7.64076 15.0022 9 15C10.4775 15 11.8298 14.466 12.8752 13.581C12.3868 13.0798 11.8028 12.6817 11.1578 12.4101C10.5128 12.1385 9.81984 11.9991 9.12 12C8.39444 11.9992 7.67663 12.1491 7.0121 12.4404C6.34757 12.7317 5.75084 13.1579 5.25975 13.692ZM4.212 12.615C4.84234 11.9461 5.603 11.4133 6.4471 11.0495C7.29121 10.6858 8.20086 10.4988 9.12 10.5C10.0062 10.4988 10.884 10.6728 11.7028 11.0118C12.5216 11.3508 13.2654 11.8482 13.8915 12.4755C14.5336 11.5718 14.9127 10.508 14.9869 9.40193C15.0611 8.29589 14.8275 7.19091 14.3119 6.20959C13.7963 5.22827 13.0189 4.40897 12.066 3.84258C11.1131 3.2762 10.0219 2.98488 8.91345 3.00094C7.80504 3.017 6.72274 3.33981 5.78664 3.93357C4.85053 4.52732 4.09722 5.3688 3.61027 6.36465C3.12332 7.3605 2.92177 8.47178 3.02799 9.57521C3.1342 10.6786 3.54403 11.7311 4.212 12.6157V12.615ZM9 9.75C8.20435 9.75 7.44129 9.43393 6.87868 8.87132C6.31607 8.30871 6 7.54565 6 6.75C6 5.95435 6.31607 5.19129 6.87868 4.62868C7.44129 4.06607 8.20435 3.75 9 3.75C9.79565 3.75 10.5587 4.06607 11.1213 4.62868C11.6839 5.19129 12 5.95435 12 6.75C12 7.54565 11.6839 8.30871 11.1213 8.87132C10.5587 9.43393 9.79565 9.75 9 9.75ZM9 8.25C9.39782 8.25 9.77936 8.09196 10.0607 7.81066C10.342 7.52936 10.5 7.14782 10.5 6.75C10.5 6.35218 10.342 5.97064 10.0607 5.68934C9.77936 5.40804 9.39782 5.25 9 5.25C8.60218 5.25 8.22064 5.40804 7.93934 5.68934C7.65804 5.97064 7.5 6.35218 7.5 6.75C7.5 7.14782 7.65804 7.52936 7.93934 7.81066C8.22064 8.09196 8.60218 8.25 9 8.25Z" fill="#3F273A"/>
</svg>
