<svg width="18" height="18" viewBox="0 0 18 18" fill="none" xmlns="http://www.w3.org/2000/svg">
<path opacity="0.3" d="M2.70967 1.65728L2.78033 1.71967L4.4238 3.36241C4.68625 3.21346 4.96041 3.07774 5.24694 2.95631C6.31453 2.5039 7.55396 2.25 9 2.25C13.9706 2.25 16.5 5.25 18 9C17.2951 10.7623 16.3628 12.359 15.0566 13.5565C14.9803 13.6265 14.9027 13.6951 14.8238 13.7623L16.2803 15.2197C16.5732 15.5126 16.5732 15.9874 16.2803 16.2803C16.01 16.5507 15.5845 16.5715 15.2903 16.3427L15.2197 16.2803L13.5767 14.6373C13.5081 14.6762 13.4388 14.7142 13.3686 14.7513C12.1693 15.3853 10.733 15.75 9 15.75C4.02944 15.75 1.5 12.75 0 9C0.571753 7.57062 1.29307 6.2502 2.24214 5.16336C2.5316 4.83187 2.84226 4.52211 3.17631 4.23761L1.71967 2.78033C1.42678 2.48744 1.42678 2.01256 1.71967 1.71967C1.99003 1.44931 2.41546 1.42851 2.70967 1.65728ZM3.37199 6.14998C2.72815 6.8873 2.16902 7.79645 1.67874 8.88348L1.62675 9.00075L1.70578 9.17692C3.21214 12.4862 5.3677 14.1707 8.75588 14.2473L9 14.25C10.3432 14.25 11.4859 14.0021 12.4658 13.5274L11.0681 12.1287C10.4753 12.5213 9.76433 12.75 9 12.75C6.92893 12.75 5.25 11.0711 5.25 9C5.25 8.23567 5.47867 7.52475 5.87133 6.93191L4.24106 5.30241C3.93485 5.55405 3.64573 5.83651 3.37199 6.14998ZM9 3.75C7.79038 3.75 6.74306 3.95143 5.83221 4.33742C5.73142 4.38013 5.63215 4.42517 5.53435 4.47254L6.93191 5.87133C7.52475 5.47867 8.23567 5.25 9 5.25C11.0711 5.25 12.75 6.92893 12.75 9C12.75 9.76433 12.5213 10.4753 12.1287 11.0681L13.7589 12.6976C13.8553 12.6184 13.9499 12.5362 14.0429 12.4509C14.9484 11.6208 15.7032 10.4982 16.341 9.07253L16.3725 8.99925L16.2942 8.82308C14.7879 5.51381 12.6323 3.82929 9.24412 3.75273L9 3.75ZM6.75 9C6.75 10.2426 7.75736 11.25 9 11.25C9.34716 11.25 9.67595 11.1714 9.96955 11.031L6.96903 8.03045C6.82862 8.32405 6.75 8.65284 6.75 9ZM9 6.75C8.65284 6.75 8.32405 6.82862 8.03045 6.96903L11.031 9.96955C11.1714 9.67595 11.25 9.34716 11.25 9C11.25 7.75736 10.2426 6.75 9 6.75Z" fill="#3F273A"/>
</svg>
