<svg width="18" height="18" viewBox="0 0 18 18" fill="none" xmlns="http://www.w3.org/2000/svg">
<path d="M9.00002 1.5C9.19893 1.5 9.38969 1.57902 9.53035 1.71967C9.671 1.86032 9.75002 2.05109 9.75002 2.25V4.5C9.75002 4.69891 9.671 4.88968 9.53035 5.03033C9.38969 5.17098 9.19893 5.25 9.00002 5.25C8.8011 5.25 8.61034 5.17098 8.46969 5.03033C8.32903 4.88968 8.25002 4.69891 8.25002 4.5V2.25C8.25002 2.05109 8.32903 1.86032 8.46969 1.71967C8.61034 1.57902 8.8011 1.5 9.00002 1.5ZM9.00002 12.75C9.19893 12.75 9.38969 12.829 9.53035 12.9697C9.671 13.1103 9.75002 13.3011 9.75002 13.5V15.75C9.75002 15.9489 9.671 16.1397 9.53035 16.2803C9.38969 16.421 9.19893 16.5 9.00002 16.5C8.8011 16.5 8.61034 16.421 8.46969 16.2803C8.32903 16.1397 8.25002 15.9489 8.25002 15.75V13.5C8.25002 13.3011 8.32903 13.1103 8.46969 12.9697C8.61034 12.829 8.8011 12.75 9.00002 12.75ZM15.495 5.25C15.5945 5.42226 15.6214 5.62697 15.5699 5.8191C15.5185 6.01123 15.3928 6.17504 15.2205 6.2745L13.272 7.3995C13.1867 7.44952 13.0923 7.48217 12.9943 7.49557C12.8963 7.50897 12.7966 7.50286 12.701 7.47757C12.6054 7.45229 12.5157 7.40835 12.4371 7.34826C12.3586 7.28818 12.2926 7.21315 12.2432 7.1275C12.1937 7.04184 12.1617 6.94724 12.149 6.84916C12.1362 6.75107 12.143 6.65143 12.1689 6.55598C12.1948 6.46053 12.2394 6.37114 12.3 6.29297C12.3606 6.2148 12.436 6.14939 12.522 6.1005L14.4705 4.9755C14.6428 4.87605 14.8475 4.8491 15.0396 4.90058C15.2317 4.95205 15.3956 5.07775 15.495 5.25ZM5.75252 10.875C5.85197 11.0473 5.87892 11.252 5.82744 11.4441C5.77596 11.6362 5.65027 11.8 5.47802 11.8995L3.52952 13.0245C3.44419 13.0745 3.34981 13.1072 3.25181 13.1206C3.15381 13.134 3.05413 13.1279 2.95851 13.1026C2.86288 13.0773 2.7732 13.0333 2.69463 12.9733C2.61606 12.9132 2.55015 12.8382 2.50069 12.7525C2.45124 12.6668 2.41921 12.5722 2.40646 12.4742C2.39371 12.3761 2.40049 12.2764 2.42641 12.181C2.45232 12.0855 2.49686 11.9961 2.55747 11.918C2.61807 11.8398 2.69353 11.7744 2.77952 11.7255L4.72802 10.6005C4.90027 10.501 5.10499 10.4741 5.29711 10.5256C5.48924 10.5771 5.65306 10.7027 5.75252 10.875ZM15.495 12.75C15.3956 12.9223 15.2317 13.0479 15.0396 13.0994C14.8475 13.1509 14.6428 13.124 14.4705 13.0245L12.522 11.8995C12.3512 11.7993 12.2269 11.6357 12.1762 11.4442C12.1256 11.2527 12.1528 11.049 12.2518 10.8775C12.3508 10.706 12.5137 10.5806 12.7048 10.5287C12.8959 10.4768 13.0998 10.5026 13.272 10.6005L15.2205 11.7255C15.3928 11.825 15.5185 11.9888 15.5699 12.1809C15.6214 12.373 15.5945 12.5777 15.495 12.75ZM5.75252 7.125C5.65306 7.29725 5.48924 7.42295 5.29711 7.47442C5.10499 7.5259 4.90027 7.49895 4.72802 7.3995L2.77952 6.2745C2.69353 6.22561 2.61807 6.1602 2.55747 6.08203C2.49686 6.00386 2.45232 5.91447 2.42641 5.81902C2.40049 5.72356 2.39371 5.62393 2.40646 5.52584C2.41921 5.42776 2.45124 5.33316 2.50069 5.2475C2.55015 5.16185 2.61606 5.08682 2.69463 5.02674C2.7732 4.96665 2.86288 4.92271 2.95851 4.89743C3.05413 4.87214 3.15381 4.86603 3.25181 4.87943C3.34981 4.89283 3.44419 4.92548 3.52952 4.9755L5.47802 6.1005C5.65027 6.19996 5.77596 6.36377 5.82744 6.5559C5.87892 6.74803 5.85197 6.95274 5.75252 7.125Z" fill="#3F273A"/>
</svg>
