<svg width="18" height="18" viewBox="0 0 18 18" fill="none" xmlns="http://www.w3.org/2000/svg">
<path d="M9 2.25C13.7898 2.25 16.3128 5.03572 17.8322 8.59387C17.9428 8.85291 17.9398 9.14568 17.8322 9.40601C16.3128 12.9642 13.7898 15.75 9 15.75C4.35946 15.75 1.84665 13.1352 0.312812 9.73638C0.101564 9.26829 0.101564 8.73171 0.312811 8.26362C1.84665 4.86485 4.35946 2.25 9 2.25ZM9 3.75C5.47071 3.75 3.248 5.43501 1.70578 8.82308L1.62675 9L1.70578 9.17692C3.21214 12.4862 5.3677 14.1707 8.75588 14.2473L9 14.25C12.5293 14.25 14.752 12.565 16.2942 9.17692L16.3725 9L16.2942 8.82308C14.7879 5.51381 12.6323 3.82929 9.24412 3.75273L9 3.75ZM9 5.25C11.0711 5.25 12.75 6.92893 12.75 9C12.75 11.0711 11.0711 12.75 9 12.75C6.92893 12.75 5.25 11.0711 5.25 9C5.25 6.92893 6.92893 5.25 9 5.25ZM9 6.75C7.75736 6.75 6.75 7.75736 6.75 9C6.75 10.2426 7.75736 11.25 9 11.25C10.2426 11.25 11.25 10.2426 11.25 9C11.25 7.75736 10.2426 6.75 9 6.75Z" fill="#3F273A"/>
</svg>
