<svg width="18" height="18" viewBox="0 0 18 18" fill="none" xmlns="http://www.w3.org/2000/svg">
<path d="M4.82364 5.2924L13.1763 13.6451L4.82364 5.2924ZM12.5797 4.69578C12.9092 4.36627 13.4435 4.36627 13.773 4.69578C14.1025 5.02528 14.1025 5.55952 13.773 5.88902L10.1929 9.4684L13.773 13.0485C14.1025 13.378 14.1025 13.9122 13.773 14.2417C13.4435 14.5712 12.9092 14.5712 12.5797 14.2417L8.99964 10.6617L5.42026 14.2417C5.11429 14.5477 4.6318 14.5695 4.30061 14.3073L4.22702 14.2417C3.89751 13.9122 3.89751 13.378 4.22702 13.0485L7.80639 9.4684L4.22702 5.88902C3.89751 5.55952 3.89751 5.02528 4.22702 4.69578C4.55652 4.36627 5.09076 4.36627 5.42026 4.69578L8.99964 8.27515L12.5797 4.69578Z" fill="#3F273A"/>
</svg>
