<svg width="18" height="18" viewBox="0 0 18 18" fill="none" xmlns="http://www.w3.org/2000/svg">
<path d="M3 16.5C2.60218 16.5 2.22064 16.342 1.93934 16.0607C1.65804 15.7794 1.5 15.3978 1.5 15V8.25C1.5 7.425 2.175 6.75 3 6.75H4.5M3 16.5H15C15.3978 16.5 15.7794 16.342 16.0607 16.0607C16.342 15.7794 16.5 15.3978 16.5 15V3C16.5 2.60218 16.342 2.22064 16.0607 1.93934C15.7794 1.65804 15.3978 1.5 15 1.5H6C5.60218 1.5 5.22064 1.65804 4.93934 1.93934C4.65804 2.22064 4.5 2.60218 4.5 3V15C4.5 15.3978 4.34196 15.7794 4.06066 16.0607C3.77936 16.342 3.39782 16.5 3 16.5Z" stroke="#3F273A" stroke-width="1.5" stroke-linecap="round" stroke-linejoin="round"/>
<path d="M13.5 10.5H7.5" stroke="#3F273A" stroke-width="1.5" stroke-linecap="round" stroke-linejoin="round"/>
<path d="M11.25 13.5H7.5" stroke="#3F273A" stroke-width="1.5" stroke-linecap="round" stroke-linejoin="round"/>
<path d="M7.5 4.5H13.5V7.5H7.5V4.5Z" stroke="#3F273A" stroke-width="1.5" stroke-linecap="round" stroke-linejoin="round"/>
</svg>
