<svg width="18" height="18" viewBox="0 0 18 18" fill="none" xmlns="http://www.w3.org/2000/svg">
<circle cx="9" cy="9" r="9" fill="#3F273A"/>
<path d="M4.84375 4.84375L13.1964 13.1964L4.84375 4.84375ZM12.5998 4.24713C12.9293 3.91762 13.4636 3.91762 13.7931 4.24713C14.1226 4.57663 14.1226 5.11087 13.7931 5.44037L10.213 9.01975L13.7931 12.5998C14.1226 12.9293 14.1226 13.4636 13.7931 13.7931C13.4636 14.1226 12.9293 14.1226 12.5998 13.7931L9.01975 10.213L5.44037 13.7931C5.1344 14.099 4.65191 14.1209 4.32072 13.8586L4.24713 13.7931C3.91762 13.4636 3.91762 12.9293 4.24713 12.5998L7.8265 9.01975L4.24713 5.44037C3.91762 5.11087 3.91762 4.57663 4.24713 4.24713C4.57663 3.91762 5.11087 3.91762 5.44037 4.24713L9.01975 7.8265L12.5998 4.24713Z" fill="white"/>
</svg>
