<svg width="18" height="18" viewBox="0 0 18 18" fill="none" xmlns="http://www.w3.org/2000/svg">
<path d="M12 12.75C12.5549 12.75 13.0394 13.0513 13.2989 13.4992L15.75 13.5C16.1642 13.5 16.5 13.8358 16.5 14.25C16.5 14.6642 16.1642 15 15.75 15L13.2993 15.0001C13.0399 15.4484 12.5552 15.75 12 15.75C11.4448 15.75 10.9601 15.4484 10.7007 15.0001L2.25 15C1.83579 15 1.5 14.6642 1.5 14.25C1.5 13.8358 1.83579 13.5 2.25 13.5L10.7011 13.4992C10.9606 13.0513 11.4451 12.75 12 12.75ZM6 7.5C6.55488 7.5 7.03939 7.80129 7.29886 8.24919L15.75 8.25C16.1642 8.25 16.5 8.58579 16.5 9C16.5 9.41421 16.1642 9.75 15.75 9.75L7.29929 9.75005C7.03993 10.1984 6.55519 10.5 6 10.5C5.44481 10.5 4.96007 10.1984 4.7007 9.75005L2.25 9.75C1.83579 9.75 1.5 9.41421 1.5 9C1.5 8.58579 1.83579 8.25 2.25 8.25L4.70114 8.24919C4.96061 7.80129 5.44512 7.5 6 7.5ZM12 2.25C12.5549 2.25 13.0394 2.55129 13.2989 2.99919L15.75 3C16.1642 3 16.5 3.33579 16.5 3.75C16.5 4.16421 16.1642 4.5 15.75 4.5L13.2993 4.50005C13.0399 4.94838 12.5552 5.25 12 5.25C11.4448 5.25 10.9601 4.94838 10.7007 4.50005L2.25 4.5C1.83579 4.5 1.5 4.16421 1.5 3.75C1.5 3.33579 1.83579 3 2.25 3L10.7011 2.99919C10.9606 2.55129 11.4451 2.25 12 2.25Z" fill="#3F273A"/>
</svg>
