<svg width="18" height="18" viewBox="0 0 18 18" fill="none" xmlns="http://www.w3.org/2000/svg">
<path d="M2 7.75L15.5 4V13L2 10V7.75Z" stroke="#3F273A" stroke-width="1.5" stroke-linecap="round" stroke-linejoin="round"/>
<path d="M8.45001 12.1C8.37122 12.3856 8.23694 12.6529 8.05484 12.8867C7.87274 13.1204 7.64639 13.316 7.3887 13.4622C7.13102 13.6085 6.84706 13.7025 6.55302 13.739C6.25898 13.7756 5.96064 13.7538 5.67501 13.675C5.38938 13.5962 5.12208 13.4619 4.88835 13.2798C4.65462 13.0977 4.45904 12.8714 4.31279 12.6137C4.16654 12.356 4.07247 12.072 4.03596 11.778C3.99945 11.484 4.02122 11.1856 4.10001 10.9" stroke="#3F273A" stroke-width="1.5" stroke-linecap="round" stroke-linejoin="round"/>
</svg>
