<svg width="18" height="18" viewBox="0 0 18 18" fill="none" xmlns="http://www.w3.org/2000/svg">
<path d="M6.375 6C6.78921 6 7.125 6.33579 7.125 6.75C7.125 7.13463 6.83547 7.45163 6.46247 7.49495L6.375 7.5H3.75C2.71447 7.5 1.875 8.33947 1.875 9.375C1.875 10.3691 2.64865 11.1825 3.62672 11.246L3.75 11.25H7.875C8.25963 11.25 8.57663 10.9605 8.61995 10.5875L8.625 10.5C8.625 10.0858 8.96079 9.75 9.375 9.75C9.78921 9.75 10.125 10.0858 10.125 10.5C10.125 11.6983 9.18831 12.6777 8.0072 12.7462L7.875 12.75H3.75C1.88604 12.75 0.375 11.239 0.375 9.375C0.375 7.5643 1.80093 6.08663 3.59112 6.00367L3.75 6H6.375ZM14.25 6C16.114 6 17.625 7.51104 17.625 9.375C17.625 11.1857 16.1991 12.6634 14.4089 12.7463L14.25 12.75H10.875C10.4608 12.75 10.125 12.4142 10.125 12C10.125 11.6154 10.4145 11.2984 10.7875 11.255L10.875 11.25H14.25C15.2855 11.25 16.125 10.4105 16.125 9.375C16.125 8.38089 15.3513 7.56747 14.3733 7.50399L14.25 7.5H10.125C9.74037 7.5 9.42337 7.78953 9.38005 8.16253L9.375 8.25C9.375 8.66421 9.03921 9 8.625 9C8.21079 9 7.875 8.66421 7.875 8.25C7.875 7.05174 8.81169 6.07225 9.9928 6.00382L10.125 6H14.25Z" fill="#3F273A"/>
</svg>
