<svg width="18" height="18" viewBox="0 0 18 18" fill="none" xmlns="http://www.w3.org/2000/svg">
<path fill-rule="evenodd" clip-rule="evenodd" d="M9.57243 2.59405C9.51605 2.49434 9.43741 2.41089 9.34344 2.35106C9.02727 2.14977 8.61717 2.25855 8.42747 2.59405L1.59514 14.6771C1.53289 14.7872 1.5 14.9132 1.5 15.0416C1.5 15.4328 1.7989 15.75 2.16762 15.75H15.8323C15.9533 15.75 16.072 15.7151 16.1758 15.649C16.4919 15.4477 16.5945 15.0126 16.4048 14.6771L9.57243 2.59405ZM9.00003 11.625C9.34521 11.625 9.62503 11.3452 9.62503 11L9.62503 6.62501C9.62503 6.27983 9.34521 6.00001 9.00003 6.00001C8.65485 6.00001 8.37503 6.27983 8.37503 6.62501L8.37503 11C8.37503 11.3452 8.65485 11.625 9.00003 11.625ZM9.00003 14.125C9.34521 14.125 9.62503 13.8452 9.62503 13.5C9.62503 13.1548 9.34521 12.875 9.00003 12.875C8.65485 12.875 8.37503 13.1548 8.37503 13.5C8.37503 13.8452 8.65485 14.125 9.00003 14.125Z" fill="#3F273A"/>
</svg>
