<svg width="18" height="18" viewBox="0 0 18 18" fill="none" xmlns="http://www.w3.org/2000/svg">
<path fill-rule="evenodd" clip-rule="evenodd" d="M9 16.5C13.1421 16.5 16.5 13.1421 16.5 9C16.5 4.85786 13.1421 1.5 9 1.5C4.85786 1.5 1.5 4.85786 1.5 9C1.5 13.1421 4.85786 16.5 9 16.5ZM12.182 5.81975C11.9623 5.60008 11.6062 5.60008 11.3865 5.81975L8.99979 8.20599L6.61354 5.81975C6.39387 5.60008 6.03771 5.60008 5.81804 5.81975C5.59837 6.03942 5.59837 6.39557 5.81804 6.61524L8.20429 9.00149L5.81804 11.3882C5.59837 11.6079 5.59837 11.964 5.81804 12.1837L5.8671 12.2274C6.0879 12.4023 6.40956 12.3877 6.61354 12.1837L8.99979 9.79699L11.3865 12.1837C11.6062 12.4034 11.9623 12.4034 12.182 12.1837C12.4017 11.964 12.4017 11.6079 12.182 11.3882L9.79529 9.00149L12.182 6.61524C12.4017 6.39557 12.4017 6.03942 12.182 5.81975Z" fill="#3F273A"/>
</svg>
