<svg width="18" height="18" viewBox="0 0 18 18" fill="none" xmlns="http://www.w3.org/2000/svg">
<path d="M9 16.5C4.85775 16.5 1.5 13.1423 1.5 9C1.5 4.85775 4.85775 1.5 9 1.5C13.1423 1.5 16.5 4.85775 16.5 9C16.5 13.1423 13.1423 16.5 9 16.5ZM9 15C10.5913 15 12.1174 14.3679 13.2426 13.2426C14.3679 12.1174 15 10.5913 15 9C15 7.4087 14.3679 5.88258 13.2426 4.75736C12.1174 3.63214 10.5913 3 9 3C7.4087 3 5.88258 3.63214 4.75736 4.75736C3.63214 5.88258 3 7.4087 3 9C3 10.5913 3.63214 12.1174 4.75736 13.2426C5.88258 14.3679 7.4087 15 9 15ZM8.95936 11.2929C8.56883 11.6834 7.93567 11.6834 7.54514 11.2929L5.60025 9.348C5.3074 9.05515 5.3074 8.58035 5.60025 8.2875C5.8931 7.99465 6.3679 7.99465 6.66075 8.2875L8.25225 9.879L11.964 6.16657C12.2569 5.87366 12.7317 5.87355 13.0247 6.16634C13.3178 6.45925 13.3179 6.93434 13.0249 7.22735L8.95936 11.2929Z" fill="#3F273A"/>
</svg>
