<svg width="227" height="120" viewBox="0 0 227 120" fill="none" xmlns="http://www.w3.org/2000/svg">
<path fill-rule="evenodd" clip-rule="evenodd" d="M201.545 82.8999C201.545 37.1574 164.463 0.0759277 118.721 0.0759277C72.9781 0.0759277 32.393 37.2354 35.8966 82.8999C40.0726 137.326 201.545 126.96 201.545 82.8999Z" fill="#C0FF99"/>
<path d="M53.337 81.8517C53.6078 81.8273 53.9613 81.8555 54.0382 82.1165C54.0407 82.4311 53.6419 82.562 53.3294 82.6006C51.6461 82.8101 49.9625 83.0192 48.2792 83.2287C49.0618 83.8927 49.1395 85.2106 48.4776 85.995C47.8153 86.7794 46.55 86.9401 45.6838 86.39C45.395 86.2062 45.1486 85.9574 44.8448 85.7994C44.541 85.6414 44.1397 85.5944 43.8766 85.8137C43.2823 86.3089 42.3855 86.1752 41.6738 85.8711C40.9688 85.5697 40.2728 85.0554 40.1085 84.3061C39.946 83.5638 40.3514 82.8156 40.8309 82.2258C41.3101 81.6363 41.8896 81.1021 42.1774 80.3988C42.6002 79.3673 43.8478 78.8537 44.953 78.9995C46.0583 79.1453 47.026 79.818 47.8313 80.5895C48.3495 81.0861 49.1903 80.8912 49.8755 80.6772C50.5607 80.4628 51.4213 80.3045 51.9012 80.8387" fill="white"/>
<path fill-rule="evenodd" clip-rule="evenodd" d="M150.529 78.9551C150.529 71.2305 156.239 69.4509 159.862 69.5417C163.485 69.6325 166.94 71.9652 168.285 75.2183C169.63 78.4714 168.792 82.4584 166.247 84.9526C163.702 87.4467 158.329 87.4773 156.78 87.0071C155.232 86.5366 150.529 83.2665 150.529 78.9551Z" fill="white"/>
<path fill-rule="evenodd" clip-rule="evenodd" d="M159.411 73.6155C160.711 73.5114 162.046 73.9857 162.99 74.8864C164.451 76.2822 164.829 78.6827 163.866 80.4596C162.903 82.2365 160.686 83.231 158.718 82.7686C156.845 82.3283 155.344 80.612 155.158 78.6963C154.971 76.7809 156.113 74.8074 157.866 74.0136C158.353 73.7936 158.878 73.6583 159.411 73.6155ZM161.667 74.5137C161.207 74.1754 160.701 73.8925 160.154 73.7832C159.531 73.659 158.879 73.7679 158.296 74.0324C156.812 74.704 155.801 76.444 155.897 78.1795C155.994 79.9146 157.199 81.5161 158.755 81.9588C160.31 82.4011 162.096 81.6421 162.945 80.1655C163.794 78.689 163.629 76.6131 162.55 75.3238C162.29 75.0137 161.987 74.7489 161.667 74.5137Z" fill="#00160A"/>
<path fill-rule="evenodd" clip-rule="evenodd" d="M72.4123 79.5076C72.3799 79.0044 72.3841 78.496 72.4729 77.9994C72.5404 77.6232 72.6559 77.2571 72.7714 76.8924C73.0199 76.1063 73.2694 75.3181 73.6101 74.5671C75.2805 70.8859 79.2735 68.3929 83.3144 68.498C87.3551 68.6027 91.2092 71.2941 92.709 75.0477C94.2089 78.8012 93.2745 83.4018 90.4363 86.2797C87.5976 89.1577 83.0176 90.1568 79.2348 88.7321C75.4521 87.307 72.6712 83.5417 72.4123 79.5076Z" fill="white"/>
<path fill-rule="evenodd" clip-rule="evenodd" d="M83.2526 34.0299C83.2735 35.6279 82.8649 37.3366 83.6041 38.7533C84.9735 41.3779 88.8192 40.89 91.6478 40.0176C89.3231 37.3714 86.9981 34.7256 84.6731 32.0794C89.4895 27.1618 94.3058 22.2442 99.1221 17.3266C99.5237 16.9167 99.9872 16.4785 100.561 16.4674C101.223 16.4545 101.74 17.0079 102.164 17.5163C103.742 19.4087 105.319 21.3008 106.897 23.1932C108.197 24.7522 109.434 27.2773 107.843 28.5378C113.812 28.1331 119.78 27.728 125.749 27.3229C124.632 20.9392 126.685 13.0814 128.713 6.92595C128.915 6.31243 129.159 5.64496 129.72 5.3241C130.113 5.09929 130.588 5.09025 131.04 5.08711C141.938 5.01195 152.835 4.93678 163.732 4.86161C164.392 4.85709 165.089 4.86161 165.659 5.19395C166.148 5.47896 166.478 5.96791 166.787 6.44293C176.006 20.6159 181.762 38.4165 183.417 55.243C183.624 57.3536 186.329 72.4683 183.417 72.9165C169.547 75.0515 172.266 62.4814 157.617 64.3202C145.582 65.8309 147.856 72.9165 140.9 74.297C134.651 75.5373 113.337 75.8456 106.428 76.1915C96.9502 76.6662 96.2807 62.338 81.8467 62.9198C67.413 63.502 67.7433 79.8911 59.9676 78.0147C59.6433 77.9367 56.1229 75.8891 56.0436 75.6438C54.8976 72.1025 54.0384 59.1409 54.0384 59.1409L51.324 58.5378C51.324 58.5378 51.1246 51.8468 51.324 51.6332C51.6755 51.2563 57.8284 51.9321 60.4913 51.6332C59.7045 46.1699 58.918 40.707 58.1312 35.2438C58.0633 34.7719 58.0045 34.2537 58.261 33.8518C58.546 33.4053 59.1185 33.2574 59.6373 33.1488C66.5765 31.699 73.6377 30.8342 80.722 30.5663C82.3189 30.5057 83.2321 32.4319 83.2526 34.0299Z" fill="white"/>
<path fill-rule="evenodd" clip-rule="evenodd" d="M69.249 48.9346L66.1254 49.1573L64.3694 32.2577L67.1047 31.8081L69.249 48.9346Z" fill="#FFB61D"/>
<path fill-rule="evenodd" clip-rule="evenodd" d="M143.022 16.7469C143.868 16.5843 160.097 27.8463 159.929 28.029C159.761 28.2121 142.687 16.8112 143.022 16.7469Z" fill="#E7EAEE"/>
<path fill-rule="evenodd" clip-rule="evenodd" d="M149.983 16.7473C150.639 16.6304 158.956 22.2537 158.725 22.5815C158.494 22.909 149.563 16.8218 149.983 16.7473Z" fill="#E7EAEE"/>
<path fill-rule="evenodd" clip-rule="evenodd" d="M141.281 20.2272C140.966 19.6697 150.274 26.1105 150.024 26.0614C147.625 25.5927 141.374 20.3908 141.281 20.2272Z" fill="#E7EAEE"/>
<path fill-rule="evenodd" clip-rule="evenodd" d="M140.182 38.3972C140.386 38.5583 140.303 38.9247 140.072 39.0455C139.842 39.1662 139.548 39.0859 139.344 38.924C138.731 38.4372 138.858 37.4054 139.395 36.8353C139.933 36.2653 140.731 36.0381 141.487 35.8348C141.801 35.7506 142.115 35.6661 142.429 35.5818C143.07 35.4099 143.751 35.2377 144.386 35.428C145.021 35.6184 145.551 36.3227 145.304 36.9387C145.149 37.326 144.739 37.5606 144.328 37.6347C143.917 37.7088 143.496 37.6524 143.08 37.6239C142.262 37.5682 141.437 37.6218 140.633 37.7829C140.475 37.8146 140.309 37.8553 140.196 37.9698C140.083 38.0843 140.056 38.2973 140.182 38.3972Z" fill="#00160A"/>
<path fill-rule="evenodd" clip-rule="evenodd" d="M144.299 73.4984C144.087 74.3775 143.874 75.2569 143.662 76.1359C143.597 76.4046 143.525 76.6861 143.336 76.8883C143.056 77.189 142.603 77.2321 142.192 77.2554C129.273 77.9956 116.344 78.5618 103.409 78.9537C102.535 78.9801 101.711 78.4814 101.137 77.8213C100.563 77.1608 100.198 76.3492 99.8411 75.5506C100.407 75.4142 100.942 75.8638 101.287 76.3325C101.631 76.8016 101.934 77.355 102.469 77.5829C102.821 77.7332 103.219 77.7151 103.601 77.6946C116.162 77.0202 128.722 76.3458 141.283 75.6713C141.735 75.647 142.226 75.6073 142.563 75.3035C142.909 74.991 142.992 74.4895 143.195 74.0695C143.397 73.6495 143.895 73.266 144.299 73.4984Z" fill="#00160A"/>
<path fill-rule="evenodd" clip-rule="evenodd" d="M47.6577 81.0087C47.0469 80.3562 46.2751 79.8561 45.4298 79.5652C44.8563 79.3679 44.1989 79.2732 43.6602 79.5523C43.1215 79.8314 42.8212 80.6019 43.1998 81.0759C43.3992 81.3254 42.9492 81.5617 42.6374 81.6299C41.7055 81.8342 41.0022 82.8674 41.2663 83.7843C41.5304 84.701 42.8128 85.1791 43.5527 84.5764C43.8203 84.3582 43.9998 84.0398 44.2901 83.8526C44.5803 83.665 45.0692 83.7047 45.1587 84.0384C45.3466 84.742 45.9883 85.3009 46.7111 85.3914C47.183 85.4502 47.7415 85.2574 47.8877 84.805C48.147 84.0032 46.9644 83.1726 47.3671 82.4324C47.57 82.059 48.0613 81.9786 48.4845 81.9407C50.102 81.7952 51.7195 81.6494 53.337 81.5039C53.6078 81.4795 53.9613 81.5077 54.0379 81.7687C54.0407 82.0833 53.6419 82.2142 53.3294 82.2528C51.6461 82.4623 49.9625 82.6714 48.2792 82.8809C49.0618 83.5449 49.1395 84.8628 48.4776 85.6472C47.8153 86.4316 46.55 86.5924 45.6838 86.0422C45.395 85.8584 45.1486 85.6096 44.8448 85.4516C44.541 85.2936 44.1397 85.2466 43.8766 85.4659C43.2823 85.9611 42.3855 85.8275 41.6738 85.5233C40.9688 85.2219 40.2728 84.7076 40.1085 83.9583C39.946 83.2161 40.3514 82.4679 40.831 81.878C41.3101 81.2885 41.8896 80.7543 42.1774 80.051C42.6002 79.0195 43.8478 78.5059 44.953 78.6517C46.0583 78.7975 47.026 79.4702 47.8313 80.2417C48.3495 80.7383 49.1903 80.5434 49.8755 80.3294C50.5607 80.115 51.4213 79.9567 51.9012 80.4909C50.9132 80.715 49.9252 80.9394 48.9369 81.1639C48.4974 81.2638 47.966 81.3379 47.6577 81.0087Z" fill="#E7EAEE"/>
<path fill-rule="evenodd" clip-rule="evenodd" d="M67.4404 80.052C67.3927 79.3101 67.3987 78.5608 67.5295 77.8293C67.629 77.2743 67.7995 76.7352 67.9694 76.1975C68.3358 75.0387 68.7037 73.8767 69.2058 72.7701C71.6676 67.3448 77.5529 63.6702 83.5086 63.8248C89.4643 63.9796 95.1447 67.9461 97.3552 73.4786C99.566 79.0108 98.1886 85.7912 94.005 90.033C89.8217 94.2748 83.0712 95.7475 77.4959 93.6473C71.9206 91.5475 67.8222 85.9972 67.4404 80.052ZM70.5648 74.5021C70.3003 75.2061 70.0936 75.9439 70.0943 76.6959C70.097 79.0014 70.2787 81.341 71.0613 83.5097C72.7063 88.0685 77.1409 91.481 81.967 91.9219C86.7934 92.3628 91.7646 89.819 94.2458 85.6558C96.727 81.4931 96.6035 75.9212 93.9563 71.8622C91.3087 67.8031 86.271 65.4454 81.4561 65.9949C76.6412 66.544 72.2706 69.9659 70.5648 74.5021Z" fill="#00160A"/>
<path fill-rule="evenodd" clip-rule="evenodd" d="M164.81 65.982C169.858 68.1041 173.373 73.4465 173.322 78.923C173.271 84.3991 169.66 89.6759 164.572 91.7047C159.485 93.7332 153.233 92.3903 149.428 88.4516C145.623 84.5129 144.496 78.2183 146.699 73.2043C147.22 72.0187 147.925 70.8863 148.926 70.0654C151.196 68.2043 153.546 66.3032 156.354 65.4474C159.111 64.6074 162.153 64.8652 164.81 65.982ZM153.066 68.6323C152.403 69.0562 151.776 69.551 151.286 70.1667C150.768 70.8174 150.417 71.583 150.071 72.3403C149.553 73.4751 149.033 74.6165 148.71 75.8213C147.599 79.9615 149.101 84.6796 152.386 87.434C155.671 90.1885 160.563 90.849 164.47 89.0853C168.377 87.322 171.114 83.2313 171.278 78.9477C171.442 74.6642 169.036 70.3869 165.302 68.2812C161.569 66.1751 156.678 66.3237 153.066 68.6323Z" fill="#00160A"/>
<path fill-rule="evenodd" clip-rule="evenodd" d="M160.347 9.77439C151.59 9.96057 142.834 10.1471 134.077 10.3336C133.859 10.3381 133.617 10.3524 133.463 10.5083C133.364 10.6092 133.322 10.7512 133.285 10.8873C131.343 17.9691 132.916 25.4723 134.235 32.6958C135.058 37.1996 135.779 41.7215 136.398 46.2577C136.844 49.524 137.237 52.8088 137.21 56.1054C137.201 57.1539 137.937 58.1012 138.855 58.6075C139.773 59.1139 140.847 59.2506 141.894 59.3014C144.1 59.4086 146.322 59.1741 148.456 58.6086C148.854 58.5035 149.266 58.3858 149.67 58.4614C150.074 58.5372 150.463 58.8769 150.439 59.2872C150.41 59.7618 149.897 60.0347 149.448 60.1941C146.63 61.197 143.536 61.4124 140.606 60.81C139.2 60.5212 137.734 59.9755 136.928 58.7878C136.47 58.1123 136.274 57.2973 136.096 56.5004C134.301 48.4839 133.405 40.2968 132.529 32.1282C131.734 24.705 130.953 17.2237 131.619 9.78761C131.64 9.55793 131.665 9.31886 131.787 9.12293C132.049 8.7029 132.626 8.64583 133.121 8.63365C142.383 8.4064 151.646 8.17881 160.908 7.95122C161.433 7.93834 161.998 7.9366 162.431 8.23344C162.751 8.45268 162.95 8.80382 163.139 9.14242C166.497 15.1705 169.855 21.1989 173.213 27.2269C173.885 28.4331 174.578 29.8185 174.16 31.1343C173.85 32.1101 172.966 32.8179 172.007 33.1746C171.047 33.5313 170.006 33.5894 168.984 33.6441C167.148 33.7419 165.313 33.84 163.478 33.9378C158.944 34.1796 154.411 34.4219 149.877 34.6637C149.617 34.6776 149.326 34.6811 149.134 34.5054C148.853 34.2489 148.974 33.7478 149.274 33.5139C149.573 33.2797 149.976 33.239 150.355 33.207C157.197 32.63 164.038 32.053 170.88 31.476C171.416 31.4308 171.788 30.8677 171.812 30.3301C171.836 29.7924 171.604 29.2805 171.375 28.7936C168.41 22.4948 165.201 16.3112 161.756 10.2619C161.497 9.8071 160.87 9.76326 160.347 9.77439Z" fill="#00160A"/>
<path fill-rule="evenodd" clip-rule="evenodd" d="M77.7691 70.2612C80.8294 68.5675 84.8102 68.7659 87.7564 70.6507C90.7025 72.5354 92.5382 75.9928 92.5769 79.4902C92.6162 83.0523 90.6851 86.7018 87.4592 88.2132C86.3344 88.7401 85.0952 89.0021 83.8542 89.0505C79.332 89.2269 74.8069 86.2533 73.3579 81.9659C71.9088 77.6785 73.8096 72.453 77.7691 70.2612ZM84.7538 87.5182C85.9429 87.3202 87.098 86.896 88.1092 86.24C89.1456 85.5677 90.0243 84.6542 90.6556 83.5924C92.2985 80.8286 92.0883 77.1165 90.2648 74.4686C88.4412 71.8203 85.1425 70.3096 81.9333 70.5055C80.7369 70.5786 79.5491 70.873 78.4797 71.4138C74.7892 73.2812 73.0944 78.2092 74.6559 82.0393C76.2177 85.8694 80.6742 88.1986 84.7538 87.5182Z" fill="#00160A"/>
<path fill-rule="evenodd" clip-rule="evenodd" d="M109.778 64.1C109.245 63.6267 108.394 63.6507 107.875 63.1629C108.022 62.6335 108.51 62.2859 108.853 61.8572C109.664 60.8438 109.579 59.2259 108.666 58.303C108.204 57.8364 107.535 57.479 107.413 56.8338C108.367 56.6699 109.331 56.3622 110.05 55.7132C110.768 55.0646 111.185 54.0125 110.869 53.0973C110.772 52.8161 110.61 52.5478 110.606 52.2506C110.602 51.9531 110.861 51.6242 111.147 51.7057C112.677 52.1424 114.467 51.1241 114.874 49.5853C115.048 48.9241 116.021 48.9892 116.632 49.2968C117.243 49.6044 118.021 49.9935 118.54 49.5484C118.979 49.1712 119.06 48.296 119.639 48.3067C119.939 48.3123 120.15 48.5855 120.36 48.8002C121.08 49.5411 122.28 49.7656 123.219 49.3358C123.548 49.1854 123.852 48.9617 124.21 48.9043C124.567 48.8468 125.006 49.0476 125.029 49.4085C125.098 50.4998 126.291 51.3716 127.352 51.1061C127.757 51.0048 128.444 51.0271 128.307 51.421C127.888 52.6244 128.783 54.0985 130.044 54.2819C130.365 54.3285 130.706 54.3063 130.997 54.4507C131.287 54.5951 131.48 55.0071 131.261 55.2469C130.323 56.2766 130.719 58.1868 131.989 58.7586C132.331 58.9127 132.251 59.4469 131.992 59.7187C131.733 59.9905 131.359 60.1554 131.17 60.4794C130.84 61.0428 131.232 61.7611 131.711 62.2045C132.19 62.6482 132.792 63.0205 133.017 63.6337C132.115 63.2892 130.998 63.6438 130.46 64.4452C129.921 65.2463 130.016 66.4149 130.675 67.1196C130.327 67.746 129.396 67.4965 128.682 67.5595C127.813 67.636 127.053 68.3881 126.967 69.2556C126.929 69.6332 127.004 70.0292 126.87 70.3842C126.735 70.7388 126.244 70.9953 125.976 70.727C124.978 69.7296 123.069 69.9301 122.301 71.1133C122.118 71.3941 121.938 71.7536 121.605 71.7839C121.08 71.8315 120.912 71.0722 120.484 70.7635C119.954 70.3807 119.201 70.815 118.828 71.352C118.456 71.8893 118.223 72.5606 117.674 72.9166C116.632 72.1513 116.948 69.9854 115.668 69.8083C115.115 69.7317 114.628 70.1423 114.104 70.3358C113.581 70.5293 112.774 70.2707 112.871 69.7213C113.031 68.822 112.896 67.6235 112.013 67.3904C111.141 67.1603 110.026 68.0665 109.425 67.3952C110.077 66.3773 110.681 64.9028 109.778 64.1ZM110.358 58.5014C109.958 59.2259 110.031 60.105 109.956 60.929C109.882 61.7531 109.535 62.6837 108.744 62.9266C109.639 62.9902 110.475 63.5825 110.832 64.4049C111.189 65.2275 111.05 66.243 110.486 66.9397C111.218 66.3905 112.336 66.5506 113.001 67.1798C113.667 67.809 113.905 68.8018 113.77 69.707C114.523 69.1683 115.586 69.1001 116.402 69.5379C117.219 69.9756 117.75 70.8989 117.719 71.8249C117.944 71.0033 118.59 70.285 119.413 70.0689C120.237 69.8525 121.204 70.2043 121.619 70.9483C121.657 70.3877 122.186 69.9906 122.706 69.778C123.821 69.3221 125.128 69.3618 126.213 69.8845C126.081 68.1351 127.91 66.5294 129.627 66.8878C129.09 66.3272 129.12 65.4148 129.419 64.6979C129.795 63.7941 130.676 63.0069 131.65 63.1107C131.085 62.9039 130.628 62.4199 130.455 61.8436C130.164 60.8765 130.694 59.7977 131.518 59.2141C130.478 58.9956 130.143 57.7024 130.014 56.6476C129.947 56.0978 129.979 55.3777 130.504 55.201C129.421 54.8947 128.443 54.2283 127.762 53.3322C127.447 52.9177 127.222 52.2632 127.622 51.9301C126.791 51.887 125.972 51.6378 125.258 51.2115C124.715 50.8868 124.181 50.2921 124.387 49.6939C122.933 50.4121 121.102 50.298 119.748 49.405C119.34 50.0485 118.538 50.3603 117.775 50.3575C117.013 50.3547 116.278 50.0833 115.58 49.7767C115.663 50.2809 115.323 50.7553 114.954 51.1088C114.016 52.0084 112.754 52.5635 111.457 52.6477C112.034 54.6316 110.497 56.9469 108.445 57.1849C108.941 57.7918 109.621 58.2362 110.358 58.5014Z" fill="#00160A"/>
<path fill-rule="evenodd" clip-rule="evenodd" d="M160.788 86.9288C159.489 87.106 158.149 86.98 156.905 86.5627C152.962 85.2403 150.384 80.731 151.246 76.6622C152.108 72.5933 156.293 69.5163 160.434 69.9064C164.574 70.2969 168.111 74.1016 168.197 78.2595C168.284 82.4177 164.909 86.3665 160.788 86.9288ZM163.764 85.1718C166.535 83.4906 168.055 79.9744 167.384 76.8041C166.712 73.6339 163.896 71.0371 160.681 70.624C157.467 70.2109 154.086 72.0111 152.634 74.9086C151.182 77.8057 151.764 81.5919 154.019 83.9193C156.48 86.459 160.741 87.0064 163.764 85.1718Z" fill="#00160A"/>
<path fill-rule="evenodd" clip-rule="evenodd" d="M120.306 50.4924C123.841 50.452 127.316 52.5564 128.917 55.7079C130.519 58.8597 130.17 62.9066 128.054 65.7383C125.937 68.5699 122.154 70.0496 118.678 69.4058C115.607 68.8369 112.882 66.6587 111.651 63.7888C110.419 60.9192 110.719 57.443 112.422 54.8257C114.126 52.2087 117.184 50.5279 120.306 50.4924ZM129.325 59.451C129.237 58.0429 128.807 56.6576 128.083 55.4469C125.874 51.7556 120.757 50.1395 116.829 51.8938C112.902 53.6477 110.69 58.5371 111.965 62.6452C113.24 66.7534 117.832 69.5304 122.063 68.7519C126.293 67.9735 129.596 63.7439 129.325 59.451Z" fill="#00160A"/>
<path fill-rule="evenodd" clip-rule="evenodd" d="M125.251 60.0535C124.583 60.8334 123.516 61.2506 122.496 61.1302C122.144 61.0884 121.6 61.1765 121.695 61.5186C122.899 61.9421 124.105 62.3656 125.309 62.7891C125.977 63.0237 126.168 63.9828 125.771 64.5681C125.374 65.1534 124.588 65.3723 123.886 65.286C123.184 65.1994 122.542 64.8618 121.917 64.5302C121.287 64.1954 120.657 63.861 120.028 63.5265C120.878 63.1904 121.799 63.7061 122.605 64.138C123.41 64.5695 124.479 64.9067 125.17 64.3085C125.275 64.218 125.367 64.1018 125.386 63.9647C125.43 63.6369 125.066 63.419 124.76 63.2941C123.791 62.9001 122.824 62.5065 121.856 62.1126C121.367 61.9135 120.791 62.0862 120.372 62.407C119.953 62.7279 119.656 63.1771 119.352 63.6087C118.709 64.5218 117.935 65.4391 116.862 65.7503C115.789 66.061 114.397 65.4541 114.287 64.3429C114.218 63.6445 114.656 62.991 115.175 62.5187C115.694 62.0465 116.313 61.6846 116.788 61.1681C116.848 61.1031 116.909 61.0293 116.916 60.9409C116.931 60.7568 116.724 60.6433 116.551 60.5797C115.617 60.2348 114.682 59.8899 113.747 59.5451C113.343 59.3958 113.595 58.698 114.022 58.6462C114.45 58.5943 114.825 58.9037 115.167 59.1657C116.069 59.8579 117.319 60.3427 118.326 59.8151C119.044 59.4393 119.457 58.5581 119.287 57.7654C119.055 56.6855 119.461 55.4929 120.302 54.7778C121.144 54.063 122.386 53.8556 123.415 54.2586C122.629 54.6278 122.271 55.6997 122.677 56.467C123.082 57.234 124.17 57.5416 124.917 57.1011C125.191 56.9396 125.555 56.7012 125.776 56.9302C125.837 56.9935 125.867 57.0809 125.89 57.1661C126.166 58.1548 125.918 59.274 125.251 60.0535ZM120.209 57.0475C120.207 58.2286 120.87 59.4448 121.965 59.8861C123.061 60.327 124.515 59.781 124.872 58.6549C124.952 58.4043 124.815 58.0013 124.576 58.1099C123.923 58.4054 123.153 58.0636 122.601 57.6057C122.242 57.3071 121.916 56.9417 121.779 56.4952C121.641 56.0487 121.731 55.51 122.089 55.2097C121.528 55.084 120.902 55.3189 120.562 55.7832C120.3 56.1423 120.21 56.6024 120.209 57.0475ZM115.448 64.4919C116.875 65.9016 117.723 64.0544 118.069 63.6581C118.869 62.7387 119.717 61.8614 120.609 61.0307C120.784 60.8675 120.791 60.5807 120.689 60.3636C120.587 60.1467 120.401 59.9835 120.22 59.8269C119.95 59.5938 119.515 59.6606 119.234 59.8798C118.952 60.0987 114.022 63.0818 115.448 64.4919Z" fill="#FFB61D"/>
<path fill-rule="evenodd" clip-rule="evenodd" d="M82.5026 74.3114C83.8027 74.2073 85.1383 74.6817 86.0817 75.5823C87.5433 76.9781 87.9206 79.3786 86.958 81.1555C85.9951 82.9324 83.7776 83.927 81.8104 83.4645C79.9367 83.0243 78.4358 81.3079 78.2496 79.3922C78.0631 77.4768 79.2046 75.5033 80.9581 74.7095C81.445 74.4896 81.9701 74.3542 82.5026 74.3114ZM84.7586 75.7747C84.2986 75.4619 83.7929 75.1998 83.2459 75.0989C82.6233 74.9841 81.9715 75.0846 81.3879 75.3293C79.9044 75.9508 78.8927 77.561 78.9895 79.1667C79.0859 80.7724 80.2914 82.2541 81.8469 82.6637C83.4025 83.0733 85.1884 82.3707 86.0372 81.0045C86.8863 79.6382 86.721 77.7176 85.6419 76.5247C85.3819 76.2376 85.0788 75.9926 84.7586 75.7747Z" fill="#00160A"/>
<path fill-rule="evenodd" clip-rule="evenodd" d="M83.2519 31.942C83.2724 33.54 82.8642 35.2487 83.6034 36.6654C84.9727 39.29 88.8181 38.8021 91.647 37.9297C89.3221 35.2835 86.9974 32.6377 84.6724 29.9915C89.4887 25.0739 94.3051 20.1563 99.121 15.2387C99.5226 14.8288 99.9865 14.3906 100.56 14.3795C101.222 14.3666 101.739 14.9199 102.163 15.4284C103.741 17.3208 105.318 19.2129 106.896 21.1053C108.196 22.6643 109.433 25.1894 107.842 26.4499C113.811 26.0451 119.78 25.6401 125.748 25.235C124.631 18.8513 126.684 12.3855 128.712 6.23003C128.914 5.6165 129.158 4.94903 129.719 4.62818C130.112 4.40337 130.587 4.39432 131.04 4.39119C141.937 4.31602 152.834 4.24086 163.731 4.16569C164.392 4.16116 165.088 4.16569 165.658 4.49803C166.148 4.78304 166.477 5.27198 166.786 5.747C176.005 19.92 181.761 36.3286 183.416 53.1551C183.624 55.2657 183.851 57.5719 185.341 59.0812C187.608 61.379 187.853 65.3834 185.881 67.9395C187.331 68.9922 186.973 71.4219 185.645 72.625C184.316 73.8277 182.429 74.1353 180.656 74.3911C178.302 74.7307 175.742 75.0335 173.684 73.8416C177.054 73.052 180.428 72.2808 183.807 71.5284C182.308 61.6595 180.81 51.7906 179.311 41.9216C178.817 38.6671 178.32 35.4011 177.399 32.2409C176.407 28.8382 174.934 25.598 173.467 22.3713C171.156 17.2895 168.845 12.2076 166.533 7.12578C166.282 6.57176 166.008 5.992 165.512 5.64051C164.911 5.21526 164.117 5.2163 163.38 5.2337C153.122 5.478 142.863 5.72194 132.604 5.96624C132.013 5.98051 131.375 6.01009 130.911 6.37653C130.528 6.67755 130.334 7.15327 130.167 7.61019C126.127 18.6484 128.494 30.8761 130.903 42.3806C131.345 44.494 128.474 45.5739 126.323 45.7625C101.765 47.9152 77.2068 50.0683 52.6484 52.2214C52.347 54.1684 52.2621 56.1489 52.3954 58.1148C54.03 58.2585 55.6642 58.4019 57.2987 58.5456C56.7802 58.7499 56.262 58.9538 55.7435 59.1577C56.7099 64.2368 57.2441 69.398 57.3384 74.5672C57.3673 76.1405 58.7307 77.435 60.2327 77.9038C61.7347 78.3729 63.3522 78.1982 64.9154 78.0193C63.2513 78.716 61.5172 79.4256 59.7156 79.3375C57.9136 79.2492 56.0271 78.1129 55.6944 76.3399C54.6518 70.7799 54.0512 65.1371 53.9005 59.4824C52.9536 59.5054 52.0067 59.5283 51.0598 59.5517C50.7396 57.1853 50.6109 54.7931 50.6749 52.4062C50.6885 51.8925 50.7302 51.3312 51.0807 50.9557C51.4321 50.5792 51.99 50.4995 52.5015 50.4421C55.1648 50.1431 57.8277 49.8442 60.4906 49.5453C59.7038 44.082 58.9169 38.6191 58.1304 33.1558C58.0622 32.684 58.0038 32.1658 58.2603 31.7638C58.5453 31.3174 59.1177 31.1694 59.6362 31.0609C66.5757 29.6111 73.637 28.7463 80.7212 28.4784C82.3179 28.4178 83.231 30.344 83.2519 31.942ZM61.4953 48.9937C61.513 49.1485 61.5395 49.3201 61.6616 49.4172C61.7803 49.5115 61.9484 49.5018 62.099 49.4875C69.0667 48.8256 76.0344 48.164 83.002 47.5025C83.1941 47.4844 83.413 47.4506 83.5181 47.2885C83.6006 47.1611 83.5835 46.9965 83.5637 46.8462C82.8517 41.5002 82.1393 36.1539 81.4273 30.8079C81.4078 30.661 81.3842 30.5044 81.2846 30.3945C81.151 30.2469 80.9286 30.2316 80.7296 30.2274C73.8451 30.0767 66.9422 30.778 60.2285 32.3105C60.0458 32.352 59.8457 32.4059 59.7413 32.5618C59.6436 32.7076 59.6596 32.8987 59.6794 33.0734C60.2846 38.38 60.8901 43.687 61.4953 48.9937ZM126.32 27.6213C126.29 27.3735 126.239 27.0902 126.023 26.9639C125.886 26.8835 125.717 26.8901 125.558 26.8991C119.354 27.2492 113.151 27.5993 106.948 27.9498C106.811 27.9574 106.664 27.9692 106.56 28.059C106.41 28.1902 106.418 28.4227 106.439 28.621C107.007 33.9771 107.575 39.3328 108.143 44.6886C108.16 44.8573 108.185 45.04 108.305 45.1598C108.459 45.3136 108.707 45.3042 108.925 45.2843C115.361 44.6945 121.797 44.1043 128.234 43.5141C127.596 38.2165 126.958 32.9189 126.32 27.6213ZM92.9987 36.6449C93.0892 36.7274 93.188 36.8133 93.3094 36.8276C93.481 36.8478 93.6306 36.7201 93.7559 36.601C97.949 32.6157 102.838 29.3265 107.032 25.3412C107.221 25.1616 107.424 24.9486 107.415 24.6883C107.409 24.514 107.307 24.3591 107.208 24.2154C105.537 21.7832 103.064 18.7278 101.189 16.449C101.005 16.2253 100.767 15.9799 100.48 16.0165C100.296 16.0398 100.15 16.1748 100.016 16.3029C95.3846 20.7653 90.7527 25.2277 86.1208 29.6901C86.0178 29.7893 85.9068 29.9059 85.9089 30.0492C85.9109 30.1926 86.0251 30.3064 86.1312 30.4028C88.4204 32.4835 90.7095 34.5642 92.9987 36.6449ZM106.402 38.8359C106.366 38.6062 106.316 38.3515 106.126 38.2172C105.957 38.0981 105.732 38.1128 105.526 38.1322C99.1144 38.7426 92.7025 39.353 86.2906 39.9638C85.9555 39.9954 85.5626 40.0657 85.4164 40.3692C85.3364 40.5362 85.3562 40.7318 85.3782 40.9159C85.5943 42.7467 85.8107 44.5779 86.0272 46.4087C86.0578 46.667 86.1069 46.9572 86.3216 47.1037C86.4935 47.2206 86.7194 47.2074 86.9268 47.1893C93.5583 46.614 100.189 46.0391 106.821 45.4639C106.986 45.4496 107.17 45.4256 107.274 45.2962C107.381 45.1632 107.36 44.9718 107.334 44.8031C107.023 42.8139 106.713 40.8251 106.402 38.8359ZM105.07 29.2739C105.054 29.1625 105.003 29.0199 104.891 29.0286C104.844 29.0324 104.805 29.0651 104.769 29.0961C101.47 31.9779 98.1717 34.8596 94.8734 37.7414C98.3029 37.454 101.729 37.1269 105.152 36.7608C105.446 36.7291 105.785 36.6682 105.926 36.4083C106.018 36.2384 105.994 36.0321 105.968 35.8407C105.668 33.6517 105.369 31.4628 105.07 29.2739ZM184.669 60.1297C184.985 61.9528 185.301 63.776 185.617 65.5992C185.648 65.7802 185.713 65.998 185.892 66.0373C186.184 66.1014 186.285 65.6632 186.245 65.3674C186.031 63.7899 185.817 62.2125 185.604 60.6346C185.565 60.3524 185.51 60.0392 185.281 59.8683C185.053 59.6978 184.62 59.8488 184.669 60.1297Z" fill="#00160A"/>
<path fill-rule="evenodd" clip-rule="evenodd" d="M27.8171 96.2732C21.7236 96.3696 0.768831 97.9224 0.406842 97.1446C-0.0562418 96.15 22.7948 94.8422 27.7757 94.7632L29.3361 94.7424C33.865 94.6933 27.8171 96.2732 27.8171 96.2732ZM74.3583 94.3697C75.8383 94.3697 76.9965 94.8485 76.0005 95.1982C75.0042 95.5483 71.7806 96.2844 66.3825 96.4086C60.9846 96.5328 54.7279 96.6612 45.4823 96.8432C44.9464 96.8537 44.503 96.4277 44.4926 95.8915C44.4821 95.3555 44.9081 94.9122 45.444 94.9018L61.8157 94.568C66.7858 94.4605 69.8969 94.3697 74.3583 94.3697ZM148.309 93.801C148.846 93.7923 149.287 94.2204 149.296 94.7563C149.304 95.2926 148.876 95.7342 148.34 95.7425L146.065 95.7704L139.104 95.8184C137.703 95.8327 81.0277 96.1949 80.2593 95.3639C79.4909 94.5329 80.6703 94.3825 81.2062 94.3697C81.2062 94.3697 139.086 93.8748 140.599 93.8637L146.388 93.8254C147.06 93.8188 147.67 93.8111 148.309 93.801ZM211.232 91.9333C211.232 91.9333 212.975 91.6323 225.701 92.5851C226.236 92.6251 226.637 93.0911 226.597 93.626C226.557 94.1605 220.264 93.8905 211.66 93.8755L209.294 93.8793C202.977 93.9072 197.108 94.078 187.368 94.4789L175.075 94.9985C169.829 95.2132 166.699 95.318 162.893 95.4077C162.357 95.4203 161.912 94.9961 161.899 94.4601C161.887 93.9239 162.311 93.4791 162.847 93.4666L165.903 93.3866C169.539 93.2815 173.275 93.1353 179.899 92.8524L186.922 92.5541C197.905 92.1 204.012 91.9333 211.232 91.9333Z" fill="#00160A"/>
</svg>
